<?xml version="1.0" encoding="utf-8"?>
<!-- Generator: Adobe Illustrator 16.0.0, SVG Export Plug-In . SVG Version: 6.00 Build 0)  -->
<!DOCTYPE svg PUBLIC "-//W3C//DTD SVG 1.1//EN" "http://www.w3.org/Graphics/SVG/1.1/DTD/svg11.dtd">
<svg version="1.1" id="Calque_1" xmlns="http://www.w3.org/2000/svg" xmlns:xlink="http://www.w3.org/1999/xlink" x="0px" y="0px"
	 width="261.752px" height="265.562px" viewBox="0 0 261.752 265.562" enable-background="new 0 0 261.752 265.562"
	 xml:space="preserve">
<g id="fusee_1_">
	<g id="etoiles">
		<g>
			<path fill="#FFFFFF" d="M19.021,141.393c-5.255-2.821-7.227-9.37-4.401-14.621c-2.825,5.251-9.369,7.223-14.619,4.401
				c5.25,2.821,7.222,9.366,4.396,14.62C7.222,140.539,13.766,138.571,19.021,141.393z"/>
		</g>
		<g>
			<path fill="#FFFFFF" d="M166.748,261.165c-5.255-2.825-7.221-9.369-4.396-14.62c-2.825,5.251-9.374,7.219-14.625,4.397
				c5.251,2.821,7.222,9.369,4.401,14.619C154.949,260.312,161.493,258.34,166.748,261.165z"/>
		</g>
		<g>
			<path fill="#FFFFFF" d="M261.752,183.543c-5.255-2.82-7.221-9.364-4.399-14.615c-2.821,5.251-9.37,7.223-14.62,4.397
				c5.25,2.825,7.221,9.369,4.396,14.624C249.954,182.694,256.498,180.723,261.752,183.543z"/>
		</g>
	</g>
	<g id="fumee">
		<polygon fill="#FFFFFF" points="121.74,162.974 105.99,154.507 77.995,198.788 97.007,208.998 		"/>
		<polygon fill="#FFFFFF" points="121.74,162.974 137.496,171.441 116.015,219.217 97.007,208.998 		"/>
		<path fill="#FFFFFF" d="M112.273,188.187c-2.631,4.894-8.73,6.729-13.624,4.098c-4.894-2.632-6.733-8.728-4.102-13.621
			c2.632-4.898,8.731-6.733,13.625-4.102C113.066,177.193,114.905,183.288,112.273,188.187z"/>
		<path fill="#FFFFFF" d="M119.733,198.374c-2.632,4.894-8.732,6.725-13.625,4.098c-4.894-2.632-6.729-8.731-4.098-13.625
			c2.627-4.894,8.728-6.729,13.621-4.102C120.529,187.381,122.36,193.477,119.733,198.374z"/>
		<circle fill="#FFFFFF" cx="96.07" cy="197.076" r="10.061"/>
		<path fill="#FFFFFF" d="M96.642,212.065c-2.627,4.894-8.731,6.733-13.63,4.102c-4.894-2.633-6.729-8.731-4.097-13.625
			c2.631-4.894,8.731-6.729,13.625-4.102C97.438,201.072,99.27,207.176,96.642,212.065z"/>
		<path fill="#FFFFFF" d="M112.371,220.524c-2.627,4.893-8.727,6.729-13.621,4.101c-4.889-2.631-6.729-8.735-4.097-13.625
			c2.631-4.894,8.731-6.729,13.625-4.105C113.171,209.525,115.002,215.626,112.371,220.524z"/>
		<path fill="#FFFFFF" d="M114.606,210.301c-2.631,4.894-8.731,6.729-13.625,4.097c-4.894-2.628-6.733-8.727-4.102-13.62
			c2.632-4.895,8.731-6.729,13.625-4.102C115.403,199.308,117.233,205.406,114.606,210.301z"/>
		<path fill="#FFFFFF" d="M105.857,226.574c-2.632,4.895-8.731,6.733-13.625,4.098c-4.894-2.627-6.729-8.723-4.102-13.62
			c2.632-4.895,8.736-6.729,13.629-4.103C106.653,215.586,108.489,221.686,105.857,226.574z"/>
		<path fill="#FFFFFF" d="M118.704,223.926c-2.632,4.894-8.731,6.728-13.621,4.098c-4.898-2.629-6.733-8.732-4.102-13.626
			c2.632-4.889,8.731-6.729,13.625-4.097C119.5,212.932,121.335,219.032,118.704,223.926z"/>
		<path fill="#FFFFFF" d="M87.871,204.096c-2.631,4.889-8.727,6.725-13.62,4.097c-4.898-2.631-6.733-8.73-4.102-13.625
			c2.631-4.894,8.731-6.729,13.625-4.097C88.667,193.098,90.503,199.197,87.871,204.096z"/>
		<path fill="#FFFFFF" d="M79.175,217.83c-2.627,4.898-8.727,6.729-13.62,4.103c-4.894-2.628-6.729-8.732-4.098-13.621
			c2.627-4.894,8.727-6.729,13.621-4.101C79.972,206.841,81.811,212.941,79.175,217.83z"/>
		<path fill="#FFFFFF" d="M66.558,226.645c-2.139,3.979-7.089,5.472-11.068,3.332c-3.974-2.135-5.461-7.089-3.327-11.063
			c2.139-3.979,7.09-5.471,11.064-3.331C67.205,217.717,68.692,222.671,66.558,226.645z"/>
		<path fill="#FFFFFF" d="M91.814,226.258c-2.632,4.89-8.732,6.729-13.629,4.098c-4.89-2.627-6.725-8.731-4.098-13.626
			c2.632-4.893,8.731-6.729,13.625-4.101C92.606,215.26,94.441,221.359,91.814,226.258z"/>
		<path fill="#FFFFFF" d="M83.967,246.352c-4.629,8.622-15.372,11.847-23.993,7.223c-8.621-4.64-11.852-15.376-7.222-24.003
			c4.63-8.616,15.377-11.851,23.993-7.217C85.372,226.988,88.602,237.727,83.967,246.352z"/>
		<path fill="#FFFFFF" d="M116.819,251.119c-5.184,9.646-17.211,13.263-26.862,8.078c-9.651-5.188-13.268-17.211-8.08-26.862
			c5.184-9.65,17.208-13.268,26.862-8.084C118.386,229.436,122.003,241.463,116.819,251.119z"/>
	</g>
	<g id="flamme">
		<path fill="#FFDF3C" d="M125.379,175.067c-2.332,4.349-13.312,16.332-17.66,13.995c-4.339-2.333-0.409-18.105,1.923-22.448
			c2.337-4.345,7.755-5.973,12.098-3.641C126.087,165.311,127.716,170.724,125.379,175.067z"/>
		<path fill="#FF8948" d="M123.72,172.572c-1.646,3.059-9.369,11.486-12.428,9.841c-3.058-1.642-0.286-12.736,1.356-15.791
			c1.646-3.059,5.452-4.202,8.511-2.561S125.362,169.514,123.72,172.572z"/>
	</g>
	<g id="vaisseau">
		<polygon fill="#494DFF" points="186.696,181.916 149.36,161.852 176.962,110.489 209.04,159.66 		"/>
		<polygon fill="#494DFF" points="69.203,118.773 106.544,138.84 134.147,87.479 75.435,87.86 		"/>
		
			<rect x="125.281" y="30.763" transform="matrix(0.8809 0.4734 -0.4734 0.8809 64.8538 -62.6648)" fill="#FFFFFF" width="63.285" height="133.499"/>
		<path fill="#494DFF" d="M209.022,0.57c0,0-32.526-6.324-48.373,23.168c18.619,10.007,27.87,14.978,27.87,14.978
			s9.25,4.973,27.875,14.98C232.242,24.207,209.022,0.57,209.022,0.57z"/>
		
			<rect x="95.9" y="155.605" transform="matrix(0.8809 0.4733 -0.4733 0.8809 91.0403 -38.7645)" fill="#002C40" width="53.273" height="11.78"/>
		
			<rect x="63.633" y="82.69" transform="matrix(-0.8809 -0.4734 0.4734 -0.8809 88.5345 225.8858)" fill="#EDEDED" width="18.12" height="38.223"/>
		<path fill="#494DFF" d="M87.611,74.043c0,0-9.312-1.811-13.849,6.632c5.329,2.867,7.979,4.288,7.979,4.288
			s2.649,1.426,7.979,4.292C94.257,80.81,87.611,74.043,87.611,74.043z"/>
		
			<rect x="55.222" y="118.437" transform="matrix(-0.8809 -0.4733 0.4733 -0.8809 61.3537 255.6847)" fill="#002C40" width="15.252" height="3.371"/>
		<polygon fill="#EDEDED" points="197.858,190.761 181.901,182.184 199.991,148.513 215.954,157.095 		"/>
		<path fill="#494DFF" d="M213.845,141.881c0,0-9.312-1.809-13.854,6.632c5.335,2.869,7.984,4.291,7.984,4.291
			s2.648,1.426,7.979,4.291C220.491,148.649,213.845,141.881,213.845,141.881z"/>
		
			<rect x="181.456" y="186.269" transform="matrix(0.8809 0.4732 -0.4732 0.8809 111.4646 -67.1022)" fill="#002C40" width="15.252" height="3.377"/>
		<circle fill="#494DFF" cx="174.031" cy="65.678" r="18.785"/>
		<path fill="#BAE3FF" d="M187.643,72.992c-4.039,7.516-13.408,10.335-20.926,6.295c-7.513-4.04-10.334-13.405-6.293-20.921
			c4.039-7.517,13.404-10.335,20.921-6.298C188.863,56.108,191.678,65.475,187.643,72.992z"/>
		<circle fill="#FFFFFF" cx="173.444" cy="57.174" r="3.67"/>
		<path opacity="0.1" d="M143.212,179.292l5.575-10.372l4.41,2.368l3.072-5.722l26.818,14.408l-1.188,2.209l1.262,0.678
			l-1.598,2.975L195,193.054l1.598-2.971l1.26,0.678l18.096-33.666c0,0-5.33-2.865,0,0c4.537-8.445-2.108-15.214-2.108-15.214
			s-8.233-1.597-12.991,5.232l-19.007-29.139l34.547-64.278c15.848-29.49-7.372-53.126-7.372-53.126L119.75,166.684L143.212,179.292
			z"/>
	</g>
</g>
</svg>
