<?xml version="1.0" encoding="utf-8"?>
<!-- Generator: Adobe Illustrator 16.0.0, SVG Export Plug-In . SVG Version: 6.00 Build 0)  -->
<!DOCTYPE svg PUBLIC "-//W3C//DTD SVG 1.1//EN" "http://www.w3.org/Graphics/SVG/1.1/DTD/svg11.dtd" [
	<!ENTITY ns_flows "http://ns.adobe.com/Flows/1.0/">
	<!ENTITY ns_extend "http://ns.adobe.com/Extensibility/1.0/">
	<!ENTITY ns_ai "http://ns.adobe.com/AdobeIllustrator/10.0/">
	<!ENTITY ns_graphs "http://ns.adobe.com/Graphs/1.0/">
]>
<svg version="1.1" id="Calque_1" xmlns:x="&ns_extend;" xmlns:i="&ns_ai;" xmlns:graph="&ns_graphs;"
	 xmlns="http://www.w3.org/2000/svg" xmlns:xlink="http://www.w3.org/1999/xlink" xmlns:a="http://ns.adobe.com/AdobeSVGViewerExtensions/3.0/"
	 x="0px" y="0px" width="266.8px" height="218.8px" viewBox="0 0 266.8 218.8" enable-background="new 0 0 266.8 218.8"
	 xml:space="preserve">
<g>
	<path fill-rule="evenodd" clip-rule="evenodd" fill="#282528" d="M125.5,25.5c3.8,0,7.5,0,11.3,0c0.1,0.1,0.1,0.2,0.2,0.2
		c2.9,0.3,5.8,0.5,8.8,0.8c1.5,0.2,3.1,0.4,4.6,0.7c1.5,0.4,3.1,0.6,4.6,0.8c1.5,0.4,3,0.7,4.6,1.1c1.5,0.4,3.1,0.8,4.6,1.2
		c0.1,0,0.3,0.1,0.4,0.1c1.3,0.5,2.5,0.9,3.8,1.4c1.6,0.7,3.3,1.3,5,2c0.8,0.5,1.6,0.9,2.5,1.2c2.3,1.1,4.4,2.7,6.7,4
		c0.3,0.2,0.6,0.4,0.9,0.6c1.1,0.9,2.3,1.8,3.4,2.8c0.6,0.5,1.3,1.1,1.9,1.6c0.9,1.1,1.9,2.2,3,3.2c0.5,0.6,1,1.1,1.6,1.7
		c0.8,1.3,1.8,2.6,2.8,3.8c0.1,0.2,0.2,0.3,0.3,0.5c0.8,2.1,2.1,3.3,4.5,2.5c1.5,0,3.1,0,4.6,0c1.5,0.2,3.1,0.3,4.6,0.5
		c1.5,0.4,3,0.9,4.6,1.3c0.6,0.2,1.3,0.4,1.9,0.6c0.9,0.4,1.8,0.8,2.7,1.2c0.3,0.2,0.6,0.3,0.9,0.5c0.2,0.1,0.5,0.3,0.7,0.4
		c0.2,0.2,0.4,0.3,0.7,0.5c0.6,0.5,0.9,1,1,1.8c0.7,1.5,1.5,2.9,1.4,4.6c0,1.5,0,3.1,0,4.6c0,1.5,0,3.1,0,4.6c0,1.5,0,3.1,0,4.6
		c0,1.5,0,3.1,0,4.6c0,1.5,0,3.1,0,4.6c-0.1,0.5-0.2,1.1-0.2,1.6c-0.6,1.2-1.3,2.2-2.4,3c-0.7,0.2-1.3,0.5-2,0.7c-1.5,0-3.1,0-4.6,0
		c-1.5,0-3.1,0-4.6,0c-0.4,0-0.8,0-1.2-0.1c-0.7-0.2-0.9,0.1-0.8,0.8c0.1,1,0.2,2.1,0.2,3.2c-0.2,0.9,0.1,1.3,1,1.2
		c0.3,0,0.5,0,0.8,0c0.2,0,0.5,0.1,0.7,0.1c2,0.1,2,0.1,2.7,2.1c0.7,1.9,1,4,1.5,6c0.1,1.5,0.3,3.1,0.4,4.6
		c-0.1,1.5-0.1,3.1-0.2,4.6c-0.2,1.5-0.3,3.1-0.5,4.6c-0.7,3.1-1.2,6.2-2.2,9.2c-0.4,1.2-1.5,0.9-2.4,1c-0.8-0.1-1.7-0.1-2.5-0.2
		c-0.7-0.1-0.9,0.2-0.9,0.8c-0.1,1-0.2,2-0.2,3.1c-0.2,1.5-0.5,3-0.5,4.6c-0.2,1.5-0.4,3.1-0.7,4.6c0,0.3-0.1,0.6-0.1,0.9
		c0,0.4-0.7,1,0.3,1.2c0.7,0.2,1.4,0.2,2.1,0.3c0.9,0.1,1.8,0,2.5,0.6c0.2,0.6,0.4,1.1,0.6,1.7c0.2,1.5,0.1,3,0,4.5
		c-0.3,2-0.6,4.1-1.3,6c-0.8,2-1.7,2.6-3.9,2.4c-1.5-0.6-3.1-0.4-4.6-0.6c-1-0.1-1,1-1.5,1.5c-2.3,3.3-4.9,6.3-7.8,9.2
		c-2.8,2.6-5.9,4.9-9.2,6.9c-1.3,0.7-2.6,1.4-3.9,2.1c-0.2,0.1-0.4,0.2-0.7,0.3c-1.5,0.7-3.1,1.5-4.6,2.2c-3.1,1.3-6.1,2.6-9.2,3.9
		c-1.2,0.5-2.5,0.9-3.7,1.4c-1.5,0.5-2.9,1-4.4,1.4c-0.4,0.1-0.8,0.2-1.1,0.3c-1.5,0.4-3.1,0.9-4.6,1.3c-1.5,0.3-3.1,0.6-4.6,0.9
		c-1.5,0.2-3.1,0.4-4.6,0.5c-1.5,0.1-3.1,0.2-4.6,0.3c-1.5,0-3.1,0.1-4.6,0.1c-1.5,0-3.1-0.1-4.6-0.1c-1.5-0.1-3.1-0.1-4.6-0.2
		c-1.5-0.1-3.1-0.2-4.6-0.3c-1.5-0.1-3.1-0.1-4.6-0.2c-1.6-0.1-3.1,0.1-4.6,0.4c-3.1,0.5-6.2,1.3-9.2,2.3c-1.5,0.4-3,1.1-4.6,0.2
		c-0.7-0.4-1.5-0.7-2.3-0.9c-2.2-1.1-4.6-2-6.9-2.9c-3.1-1.3-6.2-2.5-9.2-3.8c-1.1-0.4-1.7-1.1-1.6-2.3c-0.2-1.5-0.4-3.1-0.5-4.6
		c-0.1-0.7-0.1-1.4-0.2-2c-0.2-0.9,0.1-1.9-0.8-2.6c-0.4-0.8-0.9-1.4-1.4-2.1c-0.5-0.8-1.1-1.7-1.6-2.5c-1.7-3-3.7-6-5.1-9.2
		c-0.6-1.7-1.2-3.4-1.6-5.1c-0.2-0.9,0.1-1.9-0.6-2.7c0-0.5-0.3-0.9-0.5-1.4c-0.5-1.5-1.1-3.1-1.6-4.6c-0.3-1.5-0.7-3.1-1.1-4.6
		c-0.2-1.2-0.4-2.5-0.5-3.7c-0.3-2.5-0.6-5-0.9-7.5c0-1.8,0-1.7-1.7-1.7c-1,0-2,0.4-2.9-0.4c-0.1-0.2-0.2-0.3-0.2-0.5
		c-0.4-1.5-0.8-3.1-1.3-4.6c-0.3-1.5-0.6-3.1-0.9-4.6c-0.2-1.5-0.4-3-0.6-4.6c0-1.5-0.1-3.1-0.1-4.6c0.1-1.5,0.3-3,0.4-4.6
		c0.3-1.5,0.7-3.1,1-4.6c0.5-1.1,0.6-2.3,1.4-3.2c1.2-0.2,2.5-0.2,3.7-0.2c0.9,0,1.3-0.3,1.1-1.2c0-0.6,0-1.2,0.1-1.8
		c0.2-0.5,0.1-1.1,0.2-1.7c0-0.3,0.1-0.7-0.4-0.6c-1.5,0.1-3.1,0.1-4.6,0.2c-1.5-0.1-3.1-0.1-4.6,0c-1.5-0.1-3.1,0-4.5-0.9
		c-1.5-1.1-2.3-2.6-2.5-4.4c0-1.5,0-3.1,0-4.6c0-1.5,0-3.1,0-4.6c0-1.5,0-3.1,0-4.6c0-1.5,0-3.1,0-4.6c0-1.5,0-3.1,0-4.6
		c-0.2-1.7,0.6-3.2,1.4-4.6c0.1-0.7,0.4-1.3,1-1.8c1-0.6,2-1.2,3.1-1.7c2-0.9,4.1-1.5,6.1-2.2c1.5-0.3,3.1-0.6,4.6-0.9
		c1.5-0.1,3-0.1,4.6-0.2c1.5,0.1,3.1,0.1,4.6,0.2c0.7,0.3,1.2,0.2,1.6-0.5c0.4-0.7,0.9-1.4,1.4-2.1c0.7-0.9,1.3-1.8,2-2.7
		c0.4-0.5,0.9-1.1,1.3-1.6c2.4-2.7,5.1-5.2,7.9-7.6c0.8-0.6,1.7-1.2,2.5-1.9c0.6-0.4,1.2-0.8,1.8-1.3c2.9-1.9,6-3.6,9.2-5.2
		c3-1.3,6.1-2.4,9.2-3.5c1.5-0.4,3.1-0.8,4.6-1.2c1.5-0.4,3-0.7,4.6-1.1c1.5-0.2,3.1-0.5,4.6-0.7c0.7-0.1,1.4-0.1,2.1-0.2
		C122,25.9,123.8,26,125.5,25.5z M63.5,125.8c0-0.3,0-0.5,0-0.8c-0.6-5.2-0.8-10.4,0-15.6c0.2-1.5-0.2-3.2,1.2-4.4
		c0.1,0,0-0.2,0-0.3c-0.2-0.7-0.3-1.5-1.1-2.3c-1.9,7.9-1.7,15.6-0.4,23.4c0.2,1,0.4,2.1,1,3.1c0.4-0.7,0.8-1.8,0.8-2
		c-0.2-0.6-0.8-0.2-1.1-0.6C63.8,126.1,63.6,125.9,63.5,125.8z M216.2,81.1c-0.1-0.1-0.2-0.2-0.3,0c0,0,0.1,0.1,0.1,0.1
		c1.4,3.2,1.4,6.3-0.9,9.1c2.1,0.2,4.2-1.6,4.5-3.8C220.2,84,218.7,81.8,216.2,81.1z M90.7,41.3c-4.9,2.5-9.2,5.8-13,9.6
		c-4.2,4.1-7.6,8.9-10.2,14.2c-2.2,4.5-3.8,9.3-4.8,14.2c-0.6,3.1-0.2,6.3-0.3,9.4c0,1.5-0.1,3-1.1,4.2c-0.2,0.2-0.2,0.5-0.2,0.7
		c-0.1,1.3-0.2,2.5-0.2,3.8c0,0.8-0.5,1.9,0,2.4c0.5,0.5,1.6,0,2.4,0.1c0.6,0.1,0.8,0,0.8-0.7c0.1-2.8,0.3-5.5,0.5-8.3
		c0.3-3.8,0.6-7.6,1.4-11.3c0.4-2.1,1.4-3.7,3.4-4.6c1.9-0.8,3.9-0.7,5.9-0.3c0.4,0.1,0.7,0.1,1-0.2c3.6-3.1,7.7-5.6,12.1-7.6
		c0.7-0.3,0.7-0.7,0.6-1.3c-0.5-3.1-0.6-6.2-0.5-9.3c0.2-5.2,1.3-10.2,2.6-15.1c0-0.1,0-0.2,0-0.3C90.9,41.3,90.8,41.3,90.7,41.3z
		 M96,54.7c0.1,2.8,0.3,5.5,0.4,8.3c0,0.7,0.2,0.8,0.9,0.6c10-3.3,20.4-4.6,30.9-4.9c12.5-0.3,24.9,0.7,37,4.3
		c0.6,0.2,0.8,0.1,0.9-0.6c0.2-3.9,0.3-7.7,0.5-11.6c0.2-4.9-0.9-9.5-2.8-13.9c-0.2-0.5-0.5-0.8-1.1-1c-5.3-1.5-10.7-2.6-16.2-3.3
		c-7.5-1-15.1-1.4-22.7-0.8c-8.2,0.7-16.2,2.4-23.9,5.2c-0.7,0.3-1.2,0.6-1.4,1.3c-0.6,1.7-1.2,3.4-1.7,5.1
		C95.7,47.1,95.9,50.9,96,54.7z M199.8,103.5c-2.5,0.4-3.1-0.1-3.3-2.5c-0.3-4.9-0.8-9.7-2-14.5c-1.1-4.6-3.5-8.3-7.4-11.1
		c-4.7-3.4-9.6-6.1-15-8.3c-9-3.6-18.5-5.5-28.1-6.3c-8.4-0.7-16.8-0.7-25.3,0.1c-8.5,0.8-16.9,2.5-24.9,5.6
		c-6.8,2.6-13.2,6.1-18.5,11.3c-0.5,0.5-0.9,0.9-1.2,1.5c-2.1,4.8-3.5,9.8-4,15c-0.2,2.1-0.3,4.1-0.5,6.2c-0.1,1.9-0.5,2.3-2.4,2.6
		c-0.7,0.1-0.4,0.7-0.5,1.1c-0.1,0.3,0,0.6,0.4,0.6c1,0,1.2,0.8,1.2,1.6c-0.1,6.1-0.2,12.2-0.3,18.3c0,0.4,0,0.9-0.3,1.2
		c-0.6,0.4-0.7,1.1-0.8,1.7c-0.2,0.9-0.4,1.8-0.9,2.6c-0.2,0.3-0.2,0.6-0.2,1c0.2,1.6,0.4,3.3,0.5,4.9c0.6,5.9,2,11.6,3.2,17.4
		c0.5,2.5,0.7,5,1.8,7.3c1.2,2.4,2.7,4.6,4.5,6.6c6.3,7.2,14.4,11.7,23.3,14.7c8.1,2.7,16.5,4,25,4.5c13,0.7,25.7-0.6,38-5
		c10.4-3.6,19.6-9.1,27.3-17.1c0.8-0.8,1.8-1.6,2.2-2.7c1.6-3.9,3.3-7.8,4.5-11.9c1.7-5.6,2.4-11.3,3.2-17c0.3-1.9,0.5-3.9-0.4-5.6
		c-1.5-2.8-0.9-5.7-1-8.5c-0.2-4.1-0.2-8.2-0.2-12.3c0-0.7,0-1.5,0.9-1.5C199.8,104.7,199.7,104.1,199.8,103.5z M196.3,155
		c-1.3,1-1.8,2.5-2.4,3.9c-1.1,2.5-2.4,4.7-4.4,6.6c-8.8,8.7-19.3,14.6-31.1,18c-17.5,5.1-35.1,5-52.7,1
		c-8.6-1.9-16.6-5.3-23.7-10.7c-5.5-4.2-10-9.3-12.4-15.9c-0.5-1.3-1.6-1.8-2.9-1.3c-1.2,0.4-1.6,1.3-1.2,2.7
		c1.4,4.8,3.9,9,6.6,13.2c2.5,3.9,6,6.6,10.1,8.5c3.4,1.6,7,2.9,10.5,4.4c7.9,3.4,16,5.7,24.6,6.7c4.5,0.5,9,0.4,13.4,0.5
		c6.5,0.1,13,0,19.3-1.6c11.7-2.9,22.7-7.4,33.1-13.6c6-3.5,10.6-8.4,14.6-14.1c0.7-1,0.8-2,0.2-3c-0.3-0.5-0.6-1.1-0.6-1.7
		C197.2,157.3,196.9,156.1,196.3,155z M171,38.8c0.6,2.4,1.2,4.8,1.7,7.1c1.4,6.4,1.9,12.8,0.9,19.3c-0.1,0.7,0.3,0.8,0.7,1
		c5.6,2.4,10.9,5.4,15.6,9.4c0.2,0.2,0.3,0.5,0.7,0.2c1.1-0.7,2.4-0.6,3.7-0.6c3.3,0.2,5.2,1.7,6,5c0.8,3.1,1,6.3,1.3,9.4
		c0.3,3.2,0.4,6.4,0.6,9.6c0,0.3-0.2,0.8,0.5,0.8c0.9,0,1.8,0,2.8,0c0.3,0,0.6,0.1,0.6-0.4c-0.1-2.2,0-4.5-1.2-6.5
		c-0.8-1.3-1.2-2.6-1.2-4.1c0-1.8,0-3.6,0-5.4c0.1-3.2-0.2-6.2-1.1-9.3c-2.2-7.5-5.5-14.4-10.5-20.5C186.4,47.1,179.3,42.2,171,38.8
		z M61.3,102.3c-0.7,0-1.5,0-2.2,0c-4.6,0.1-4.5,0.1-5.4,4.7c-1.3,7-0.4,13.9,1.2,20.7c0.6,2.3,0.6,2.2,2.9,2.2c1.4,0,2.8,0,4.2,0
		C59.5,120.6,59.5,111.5,61.3,102.3z M204.3,130c1.8,0,3.6-0.1,5.3,0c0.8,0,1.1-0.2,1.3-1c1.2-4.2,1.9-8.4,2.1-12.8
		c0.2-4.4-0.1-8.7-1.5-12.9c-0.1-0.3-0.1-0.8-0.6-0.8c-2,0-4,0-5.9,0C207,111.6,206.8,120.6,204.3,130z M173.2,59.1
		c0-7.2-1.1-13.5-3.1-19.8c-0.5-1.5-1.4-2.4-2.9-2.8c-0.7-0.2-1.5-0.8-2-0.2c-0.7,0.7-0.2,1.6,0.1,2.4c1.3,3,1.8,6.2,1.8,9.4
		c0,3.5,0,7-0.1,10.6c0,0.9,0.1,1.8,0,2.7c-0.3,1.5,0.1,2.4,1.4,3.2c0.6,0.4,1.3,0.6,2,0.8c1.6,0.5,2.1,0.3,2.5-1.4
		C173.3,62.2,173.1,60.3,173.2,59.1z M89.2,57.8c-0.1,2.5,0.1,5,0.5,7.5c0.2,1.1,0.7,1.2,1.6,1c1.2-0.2,2.2-0.8,3.3-1.3
		c0.6-0.3,0.8-0.7,0.8-1.4c0-2.9,0-5.9,0-8.8c0-3.5,0-7,0.4-10.4c0.2-1.8,0.6-3.5,1.3-5.2c0.2-0.4,0.3-1,0-1.4
		c-0.4-0.5-0.9-0.1-1.4,0c-2.6,0.9-3.9,2.7-4.4,5.5C90.5,48.1,89.4,52.9,89.2,57.8z M221.6,88.1c-1.9,4-5.7,5-8.5,4.3
		c-3.1-0.8-5.4-3.6-5.5-6.7c-0.1-3.1,1.9-5.8,4.9-6.8c3.6-1.1,6.7,0.3,9.1,4.2c0.2-0.1,0.2-0.2,0.2-0.4c0-5.5,0-11,0-16.5
		c0-1.9-1.3-3.2-3.3-3.2c-2.9,0-5.8,0-8.7,0c-2.6,0-3.8,1.1-3.8,3.8c0,7.5,0,15,0,22.5c0,2.5,1.1,3.7,3.6,3.7c2.8,0,5.5,0,8.3,0
		C220.9,93,222.2,91.5,221.6,88.1z M44.4,83.2c3.6-5,8-6.1,11.8-3c3,2.5,3.2,7.1,0.4,10c-1.8,1.9-4.1,2.6-6.7,2.1
		c-2.6-0.5-4.3-2.1-5.5-4.6c0,0.9,0,1.6,0,2.2c0.1,1.5,1.2,2.9,2.6,2.9c3.6,0.1,7.1,0,10.7,0c0.6,0,1.3-0.2,1.4-1.1
		c0.3-3.8,0.8-7.5,1.1-11.3c0.3-4.8,0.1-9.7,0.1-14.5c0-1.7-1.3-3-3-3c-3.2,0-6.4,0-9.7,0c-1.7,0-3.1,1.3-3.1,3
		C44.3,71.7,44.4,77.4,44.4,83.2z M98.6,189.3c0.1-0.5-0.4-0.5-0.6-0.6c-5.5-2.3-11-4.6-16.4-7c-0.5-0.2-0.8-0.2-1,0.4
		c-0.7,1.4-1.4,2.7-2.2,4c-0.4,0.7-0.2,0.9,0.5,1.2c4.7,1.9,9.5,3.9,14.2,5.8c1,0.4,2.2,1.3,3,1.1c0.9-0.3,1.1-1.9,1.6-2.9
		C98,190.7,98.3,190,98.6,189.3z M200.5,97.8C200.5,97.8,200.6,97.8,200.5,97.8c-0.1-1.7-0.1-3.4-0.3-5.2c-0.3-3.9-0.6-7.9-1.4-11.7
		c-0.6-2.9-2.2-4.1-5.1-4.1c-1.3,0-1.3,0-0.8,1.2c2.6,5.6,4.2,11.5,4.7,17.6c0.2,1.9,0.3,3.7,0.4,5.6c0,0.4-0.1,0.9,0.6,0.8
		c1.4-0.3,1.9-0.9,1.8-2.3C200.6,99.1,200.6,98.4,200.5,97.8z M73.8,76.4c-3.9-0.5-5.8,0.8-6.4,4.2C66.3,87,66,93.5,65.7,100
		c0,0.6,1.1,1.5,1.9,1.4c0.8,0,0.6-0.8,0.6-1.2c0.2-3.8,0.5-7.6,1.3-11.4C70.4,84.5,71.8,80.4,73.8,76.4z M62.7,131.9
		C62.7,132,62.7,132,62.7,131.9c-0.3,0.1-0.6,0.1-0.9,0.1c-0.8-0.1-1.1,0.1-1,1c0.3,1.7,0.3,3.4,0.6,5.1c0.5,3.8,1.1,7.6,2.5,11.1
		c0.8,1.9,1.6,3.9,2.2,5.9c0.4,1.4,1.4,0.7,2,0.7c0.8,0,0.3-0.7,0.2-1.1c-1.5-7.3-3.1-14.6-3.8-22.1c-0.1-0.6-0.3-0.8-0.8-0.7
		C63.4,132,63,131.9,62.7,131.9z M205,134.2c0-0.5,0-0.9,0-1.4c0-0.7-0.3-1.1-1-1.4c-2.3-1-3.4-0.4-3.8,2c-0.4,2.6-0.8,5.3-1.2,7.9
		c-0.3,1.8-0.6,3.5-0.9,5.3c-0.1,0.5,0,0.8,0.6,0.8c1,0.1,2.1,0.2,3.1,0.1c0.9-0.1,1.6-0.6,1.7-1.6
		C204.1,142.1,204.9,138.2,205,134.2z M205.8,160.2c-0.2-3.5,0.1-6.8,1.1-10.1c0.2-0.5,0-0.6-0.5-0.7c-1.8-0.1-3.7-0.3-5.5-0.5
		c-0.7-0.1-1,0.2-1.3,0.8c-1.2,3-1.2,6-1,9.2c0,0.6,0.4,0.6,0.8,0.7C201.6,159.8,203.6,160,205.8,160.2z M67.5,58
		c-6.4-0.9-16.1,0.7-18.7,2.9c2.6,0,5.3,0,7.9,0c3.5,0,5.6,2.2,5.7,5.7c0,0.9,0,1.7,0,2.6C64.1,65.4,65.3,61.5,67.5,58z M199.2,57.9
		c1.8,3.4,3.1,6.9,4.5,10.7c0-0.7,0-1.1,0-1.5c-0.3-3.9,2.4-6.5,6.2-6.3c2.5,0.2,5,0,7.8,0C211.7,58.1,205.6,57.3,199.2,57.9z
		 M202.7,102.8c-1.1,1.4-1.1,1.6-0.4,2.9c0.1,0.2,0.2,0.4,0.2,0.7c1,6.3,1,12.6,0.3,19c-0.1,0.5-0.3,1-0.8,1.1
		c-0.7,0-0.7,0.4-0.5,0.9c0.2,0.5,0.2,1.1,0.9,1.8C204.7,120.2,204.8,111.5,202.7,102.8z M98,194.5c3.8-1.1,7.4-2.1,11.1-2.8
		c-2.8-0.7-5.6-1.3-8.3-1.9c-0.5-0.1-0.6,0.2-0.8,0.6C99.3,191.6,98.7,192.9,98,194.5z M50.1,81c-2.3,0.2-4,2.5-3.8,5
		c0.2,2.3,2.2,4.3,4.5,4.2C48.5,87.3,48.6,84.2,50.1,81z M76.4,178.8c0.3,2.2,0.5,4.1,0.7,6.4c0.8-1.5,1.5-2.7,2.1-3.9
		c0.2-0.3,0.1-0.5-0.2-0.7C78.2,180,77.4,179.4,76.4,178.8z M207.9,156.1c0.1,0,0.2,0,0.4,0c0.1-0.9,0.5-1.9,0.1-2.8
		C208.2,154.2,208,155.2,207.9,156.1z"/>
	<path fill-rule="evenodd" clip-rule="evenodd" fill="#FDFDFD" d="M96,54.7c-0.1-3.8-0.3-7.6,0.7-11.3c0.5-1.7,1.1-3.4,1.7-5.1
		c0.3-0.7,0.7-1.1,1.4-1.3c7.7-2.9,15.7-4.6,23.9-5.2c7.6-0.6,15.2-0.1,22.7,0.8c5.5,0.7,10.9,1.8,16.2,3.3c0.6,0.2,0.9,0.4,1.1,1
		c1.9,4.5,3,9,2.8,13.9c-0.2,3.9-0.3,7.7-0.5,11.6c0,0.7-0.2,0.8-0.9,0.6c-12.1-3.6-24.5-4.6-37-4.3c-10.5,0.3-20.8,1.6-30.9,4.9
		c-0.7,0.2-0.8,0.1-0.9-0.6C96.3,60.2,96.1,57.5,96,54.7z"/>
	<path fill-rule="evenodd" clip-rule="evenodd" fill="#DEDCF2" d="M196.3,155c0.6,1.1,0.9,2.3,1,3.5c0,0.6,0.3,1.2,0.6,1.7
		c0.7,1.1,0.5,2-0.2,3c-3.9,5.7-8.6,10.6-14.6,14.1c-10.4,6.1-21.4,10.7-33.1,13.6c-6.3,1.6-12.8,1.7-19.3,1.6
		c-4.5-0.1-9,0.1-13.4-0.5c-8.5-1-16.7-3.3-24.6-6.7c-3.5-1.5-7-2.8-10.5-4.4c-4.1-1.9-7.6-4.6-10.1-8.5c-2.7-4.2-5.2-8.4-6.6-13.2
		c-0.4-1.4,0-2.3,1.2-2.7c1.4-0.5,2.4,0,2.9,1.3c2.5,6.6,6.9,11.7,12.4,15.9c7.1,5.3,15.1,8.8,23.7,10.7c17.6,3.9,35.3,4.1,52.7-1
		c11.8-3.4,22.2-9.3,31.1-18c2-1.9,3.3-4.2,4.4-6.6C194.5,157.5,195,156,196.3,155z"/>
	<path fill-rule="evenodd" clip-rule="evenodd" fill="#FBFBFB" d="M61.3,102.3c-1.8,9.2-1.8,18.3,0.8,27.6c-1.4,0-2.8,0-4.2,0
		c-2.3,0-2.3,0-2.9-2.2c-1.7-6.8-2.5-13.7-1.2-20.7c0.8-4.6,0.8-4.6,5.4-4.7C59.8,102.3,60.6,102.3,61.3,102.3z"/>
	<path fill-rule="evenodd" clip-rule="evenodd" fill="#FBFBFB" d="M204.3,130c2.5-9.3,2.6-18.4,0.7-27.5c1.9,0,3.9,0,5.9,0
		c0.5,0,0.5,0.5,0.6,0.8c1.4,4.2,1.8,8.5,1.5,12.9c-0.2,4.3-0.9,8.6-2.1,12.8c-0.2,0.8-0.5,1-1.3,1C207.9,129.9,206.1,130,204.3,130
		z"/>
	<path fill-rule="evenodd" clip-rule="evenodd" fill="#FA695E" d="M173.2,59.1c-0.1,1.2,0.1,3.1-0.3,4.9c-0.4,1.7-0.9,1.9-2.5,1.4
		c-0.7-0.2-1.4-0.5-2-0.8c-1.3-0.8-1.7-1.7-1.4-3.2c0.2-0.9,0-1.8,0-2.7c0-3.5,0.1-7,0.1-10.6c0-3.2-0.6-6.4-1.8-9.4
		c-0.3-0.8-0.8-1.7-0.1-2.4c0.6-0.5,1.4,0,2,0.2c1.4,0.4,2.4,1.3,2.9,2.8C172.1,45.6,173.2,51.9,173.2,59.1z"/>
	<path fill-rule="evenodd" clip-rule="evenodd" fill="#FA695E" d="M89.2,57.8c0.2-4.9,1.3-9.7,2.1-14.5c0.5-2.8,1.8-4.5,4.4-5.5
		c0.4-0.2,1-0.5,1.4,0c0.4,0.4,0.2,1,0,1.4c-0.7,1.7-1.1,3.4-1.3,5.2c-0.4,3.5-0.4,7-0.4,10.4c0,2.9,0,5.9,0,8.8
		c0,0.6-0.2,1.1-0.8,1.4c-1.1,0.5-2.1,1.1-3.3,1.3c-0.9,0.2-1.4,0-1.6-1C89.4,62.8,89.2,60.3,89.2,57.8z"/>
	<path fill-rule="evenodd" clip-rule="evenodd" fill="#F7F7F7" d="M221.6,88.1c0.6,3.3-0.7,4.9-3.8,4.9c-2.8,0-5.5,0-8.3,0
		c-2.5,0-3.6-1.2-3.6-3.7c0-7.5,0-15,0-22.5c0-2.6,1.1-3.8,3.8-3.8c2.9,0,5.8,0,8.7,0c2,0,3.3,1.2,3.3,3.2c0,5.5,0,11,0,16.5
		c0,0.1,0,0.3-0.2,0.4c-2.5-3.9-5.5-5.3-9.1-4.2c-3,0.9-4.9,3.7-4.9,6.8c0.1,3.1,2.4,5.9,5.5,6.7C216,93.1,219.7,92.2,221.6,88.1z
		 M214.3,63.9c-4-0.1-7.2,3-7.3,6.8c0,3.9,3.2,7.1,7.2,7.2c3.8,0.1,7.1-3,7.2-6.7C221.5,67.2,218.4,63.9,214.3,63.9z"/>
	<path fill-rule="evenodd" clip-rule="evenodd" fill="#F7F7F7" d="M44.4,83.2c0-5.8,0-11.5,0-17.2c0-1.7,1.4-3,3.1-3
		c3.2,0,6.4,0,9.7,0c1.7,0,3,1.3,3,3c0,4.8,0.2,9.7-0.1,14.5c-0.3,3.8-0.8,7.5-1.1,11.3c-0.1,0.9-0.8,1.1-1.4,1.1
		c-3.6,0.1-7.1,0.1-10.7,0c-1.4,0-2.5-1.4-2.6-2.9c0-0.6,0-1.3,0-2.2c1.2,2.5,2.9,4.1,5.5,4.6c2.6,0.5,4.9-0.2,6.7-2.1
		c2.8-2.9,2.6-7.5-0.4-10C52.4,77.1,48,78.2,44.4,83.2z M59,70.5c0-3.8-3.2-6.9-7.2-6.8c-4,0-7.2,3.2-7.2,7.1c0,3.8,3.2,6.9,7.1,6.9
		C55.8,77.7,59.1,74.5,59,70.5z"/>
	<path fill-rule="evenodd" clip-rule="evenodd" fill="#F9F9F9" d="M62.7,131.9c0.3,0,0.7,0,1,0c0.6-0.1,0.8,0.1,0.8,0.7
		c0.7,7.5,2.2,14.8,3.8,22.1c0.1,0.4,0.6,1.1-0.2,1.1c-0.6,0-1.6,0.7-2-0.7c-0.6-2-1.4-3.9-2.2-5.9c-1.4-3.6-2-7.4-2.5-11.1
		c-0.2-1.7-0.3-3.4-0.6-5.1c-0.2-0.9,0.2-1.1,1-1C62,132,62.4,132,62.7,131.9C62.7,132,62.7,132,62.7,131.9z"/>
	<path fill-rule="evenodd" clip-rule="evenodd" fill="#F9F9F9" d="M205,134.2c-0.1,4-0.9,7.9-1.5,11.8c-0.1,1-0.8,1.4-1.7,1.6
		c-1,0.1-2.1,0-3.1-0.1c-0.6,0-0.7-0.4-0.6-0.8c0.3-1.8,0.6-3.5,0.9-5.3c0.4-2.6,0.8-5.3,1.2-7.9c0.4-2.4,1.5-3,3.8-2
		c0.6,0.3,1,0.7,1,1.4C205,133.3,205,133.8,205,134.2z"/>
	<path fill-rule="evenodd" clip-rule="evenodd" fill="#FBFBFB" d="M205.8,160.2c-2.2-0.2-4.2-0.4-6.3-0.6c-0.5,0-0.8-0.1-0.8-0.7
		c-0.2-3.1-0.2-6.2,1-9.2c0.2-0.6,0.5-0.9,1.3-0.8c1.8,0.2,3.7,0.4,5.5,0.5c0.5,0,0.7,0.2,0.5,0.7
		C205.9,153.4,205.6,156.7,205.8,160.2z"/>
	<path fill-rule="evenodd" clip-rule="evenodd" fill="#F7F7F7" d="M67.5,58c-2.2,3.5-3.5,7.4-5.1,11.1c0-0.9,0-1.7,0-2.6
		c-0.1-3.5-2.2-5.6-5.7-5.7c-2.6,0-5.3,0-7.9,0C51.4,58.7,61.1,57.1,67.5,58z"/>
	<path fill-rule="evenodd" clip-rule="evenodd" fill="#F7F7F7" d="M199.2,57.9c6.4-0.7,12.5,0.2,18.5,3c-2.8,0-5.3,0.1-7.8,0
		c-3.8-0.2-6.5,2.4-6.2,6.3c0,0.4,0,0.8,0,1.5C202.3,64.9,201,61.4,199.2,57.9z"/>
	<path fill-rule="evenodd" clip-rule="evenodd" fill="#EBEBEB" d="M202.7,102.8c2.1,8.7,1.9,17.4-0.4,26.3c-0.7-0.7-0.7-1.3-0.9-1.8
		c-0.2-0.5-0.2-0.9,0.5-0.9c0.6,0,0.8-0.5,0.8-1.1c0.7-6.3,0.7-12.7-0.3-19c0-0.2-0.1-0.5-0.2-0.7
		C201.7,104.4,201.7,104.2,202.7,102.8z"/>
	<path fill-rule="evenodd" clip-rule="evenodd" fill="#A5A5A5" d="M50.1,81c-1.5,3.2-1.6,6.3,0.6,9.2c-2.3,0.1-4.3-1.9-4.5-4.2
		C46.1,83.5,47.8,81.2,50.1,81z"/>
	<path fill-rule="evenodd" clip-rule="evenodd" fill="#A5A5A5" d="M216.2,81.1c2.4,0.7,4,3,3.6,5.4c-0.4,2.2-2.4,4-4.5,3.8
		c2.3-2.9,2.3-5.9,0.9-9.1C216.1,81.2,216.2,81.1,216.2,81.1z"/>
	<path fill-rule="evenodd" clip-rule="evenodd" fill="#EDEDED" d="M63.2,125.8c-1.4-7.7-1.5-15.5,0.4-23.4c0.7,0.8,0.8,1.6,1.1,2.3
		c0,0.1,0,0.3,0,0.3c-1.4,1.2-1,2.9-1.2,4.4c-0.7,5.2-0.5,10.4,0,15.6c0,0.3,0,0.5,0,0.8C63.4,125.8,63.3,125.8,63.2,125.8z"/>
	<path fill-rule="evenodd" clip-rule="evenodd" fill="#EDEDED" d="M76.4,178.8c1,0.7,1.8,1.2,2.7,1.7c0.3,0.2,0.4,0.4,0.2,0.7
		c-0.7,1.2-1.3,2.4-2.1,3.9C76.9,182.9,76.6,180.9,76.4,178.8z"/>
	<path fill-rule="evenodd" clip-rule="evenodd" fill="#EBEBEB" d="M210.2,95.2c0,1.3,0,2.6,0,3.9l0,0c-0.6,0-1.2,0-1.8,0
		c-0.1-1.1-0.1-2.1-0.2-3.2c-0.1-0.7,0.1-1,0.8-0.8C209.3,95.2,209.7,95.2,210.2,95.2z"/>
	<path fill-rule="evenodd" clip-rule="evenodd" fill="#F9F9F9" d="M205.6,162.6c0,0.3,0,0.6,0,0.9h0c-1.5,0-3.1,0-4.6,0l0,0
		c0-0.5,0-1,0-1.5C202.5,162.2,204.1,162,205.6,162.6z"/>
	<path fill-rule="evenodd" clip-rule="evenodd" fill="#EBEBEB" d="M224,94.5c-0.9,0-1.7,0-2.6,0c1.1-0.8,1.8-1.8,2.4-3
		C224.2,92.5,223.8,93.5,224,94.5z"/>
	<path fill-rule="evenodd" clip-rule="evenodd" fill="#EBEBEB" d="M63.2,125.8c0.1,0,0.2,0,0.3,0c0.1,0.2,0.3,0.3,0.4,0.5
		c0.3,0.4,1,0,1.1,0.6c0.1,0.2-0.4,1.3-0.8,2C63.6,127.9,63.4,126.8,63.2,125.8z"/>
	<path fill-rule="evenodd" clip-rule="evenodd" fill="#F7F7F7" d="M81.3,39.3c0.9,0,1.9,0,2.8,0c-0.8,0.6-1.7,1.2-2.5,1.9
		C81.1,40.6,81.4,39.9,81.3,39.3z"/>
	<path fill-rule="evenodd" clip-rule="evenodd" fill="#EBEBEB" d="M219.4,57.7c0,0.4,0,0.8,0,1.2c0,0.1,0,0.2,0,0.3
		c-0.9-0.4-1.8-0.8-2.7-1.2C217.5,57.4,218.4,57.8,219.4,57.7z"/>
	<path fill-rule="evenodd" clip-rule="evenodd" fill="#FBFBFB" d="M208.3,99.1c0.6,0,1.2,0,1.8,0c0,0.4,0,0.8,0,1.1
		c-0.3,0-0.5,0-0.8,0C208.4,100.4,208.1,100,208.3,99.1z"/>
	<path fill-rule="evenodd" clip-rule="evenodd" fill="#F7F7F7" d="M72.4,50.4c-0.6-0.5-0.2-1.3-0.3-1.9c0.5,0.1,1.2-0.2,1.6,0.3
		C73.3,49.3,72.9,49.8,72.4,50.4z"/>
	<path fill-rule="evenodd" clip-rule="evenodd" fill="#DEDCF2" d="M73.6,177.3c-0.5,0-1,0-1.4,0c0-0.7,0-1.4,0-2.1
		C72.7,175.9,73.2,176.6,73.6,177.3z"/>
	<path fill-rule="evenodd" clip-rule="evenodd" fill="#DEDCF2" d="M201,162c0,0.5,0,1,0,1.5c-0.5,0-1,0-1.5,0
		C200,163,199.9,161.9,201,162z"/>
	<path fill-rule="evenodd" clip-rule="evenodd" fill="#DEDCF2" d="M207.9,156.1c0.1-0.9,0.3-1.9,0.4-2.8c0.4,1,0.1,1.9-0.1,2.8
		C208.1,156.1,208,156.1,207.9,156.1z"/>
	<path fill-rule="evenodd" clip-rule="evenodd" fill="#EBEBEB" d="M58.6,97.3c-0.5-0.7-0.1-1.5-0.3-2.2c0.5-0.1,0.5,0.2,0.4,0.6
		C58.7,96.2,58.8,96.7,58.6,97.3z"/>
	<path fill-rule="evenodd" clip-rule="evenodd" fill="#FBFBFB" d="M221,60.1c0.1-0.2-0.1-0.7,0.3-0.6c0.6,0.1,0.4,0.7,0.4,1.1
		C221.4,60.4,221.2,60.2,221,60.1z"/>
	<path fill-rule="evenodd" clip-rule="evenodd" fill="#EBEBEB" d="M205.3,146c0.5,0.3,0.2,0.8,0.3,1.2
		C204.6,147,205.2,146.4,205.3,146z"/>
	<path fill-rule="evenodd" clip-rule="evenodd" fill="#FBFBFB" d="M219.3,59.1c0-0.1,0-0.2,0-0.3c0.6,0,1,0,0.9,0.8
		C219.9,59.5,219.6,59.3,219.3,59.1z"/>
	<path fill-rule="evenodd" clip-rule="evenodd" fill="#A5A5A5" d="M216.1,81.2c-0.1,0-0.1-0.1-0.1-0.1c0.1-0.1,0.2-0.1,0.3,0
		C216.2,81.1,216.1,81.2,216.1,81.2z"/>
	<path fill-rule="evenodd" clip-rule="evenodd" fill="#FCFCFC" d="M90.7,41.3c0.1,0,0.1-0.1,0.2-0.1c0,0.1,0,0.2,0,0.3
		C90.8,41.4,90.8,41.4,90.7,41.3z"/>
	<path fill-rule="evenodd" clip-rule="evenodd" fill="#1E1C1E" d="M214.3,63.9c4,0.1,7.2,3.3,7.1,7.3c-0.1,3.7-3.4,6.8-7.2,6.7
		c-4-0.1-7.2-3.3-7.2-7.2C207.1,66.8,210.3,63.8,214.3,63.9z M215,66.2c0,0,0-0.1-0.1-0.1C214.9,66.1,214.9,66.1,215,66.2
		C214.9,66.2,215,66.2,215,66.2c0.6,0.9,1.2,1.7,1.4,2.8c0.5,2.2,0.2,4.3-0.8,6.3c0,0-0.1,0.1-0.1,0.1c0,0,0,0,0.1,0.1
		c0,0,0.1-0.1,0.1-0.1c2.3-0.5,3.9-2.7,3.6-5C219,68.2,217.1,66.2,215,66.2z"/>
	<path fill-rule="evenodd" clip-rule="evenodd" fill="#232123" d="M59,70.5c0,4-3.2,7.2-7.3,7.2c-3.9,0-7.1-3.1-7.1-6.9
		c0-3.9,3.3-7.1,7.2-7.1C55.8,63.7,59,66.8,59,70.5z M51.3,66c-1.9-0.2-4.4,1.9-4.5,4.6c-0.1,2.2,1.8,4.7,3.7,4.6
		C48.9,72,49,68.9,51.3,66z"/>
	<path fill-rule="evenodd" clip-rule="evenodd" fill="#FBFBFB" d="M224,60.9c0,0.2,0,0.3,0,0.5c-0.2-0.1-0.6,0.1-0.6-0.3
		C223.4,60.9,223.8,60.9,224,60.9z"/>
	<path fill-rule="evenodd" clip-rule="evenodd" fill="#192B37" d="M177.9,153.4c-3.3,1-6.5,2.1-9.8,2.8c-4.8,1-9.6,1.6-14.4,2
		c-0.6,0.1-1.2,0.3-1.7,0.6c-4.5,2.2-9.3,2.5-14.1,1.5c-1-0.2-2.1-0.5-2.9-1.3c-0.7-0.7-1.1-1.4-1.1-2.3c0-1,0-2,0-3
		c0.1-2.7,1.6-4.6,4.4-5.2c4.6-1.1,9-0.6,12.9,2.2c0.1,0,0.2,0.1,0.2,0.1c1.3,2.3,3.4,1.7,5.3,1.3c7.1-1.3,14.3-2.8,21.1-5.4
		c5.3-2.1,10.3-4.6,15.1-7.6c0.5-0.3,0.6-0.6,0.6-1.1c0.5-3.3,0.7-6.6,0.8-9.9c0.2-5.2,0.4-10.3,0.3-15.5c-0.1-5.4-0.8-10.8-2.1-16
		c-1.1-4.3-2.5-8.6-4.5-12.6c-0.3-0.6-0.7-1.1-1.3-1.4c-6.3-4-13.1-6.7-20.2-8.8c-6.5-1.9-13.2-3.1-19.9-3.8
		c-2.7-0.3-5.4-0.6-8.1-0.6c-0.4,0-0.9,0.1-1.2-0.2c0.2-0.1,0.3-0.2,0.5-0.2c3.2,0,6.5,0,9.7,0.4c4.4,0.5,8.8,1.2,13.1,2.2
		c4.8,1.1,9.6,2.5,14.2,4.4c3,1.2,5.8,2.5,8.7,3.8c3.2,1.5,5.5,3.9,6.6,7.2c1.4,3.9,2.8,7.8,3.5,11.8c0.5,2.8,0.9,5.6,1.1,8.4
		c0.4,4.3,0.5,8.6,0.4,12.8c-0.1,4.1-0.2,8.3-0.5,12.4c-0.1,1.9-0.4,3.8-0.7,5.7c-0.2,1-0.7,1.9-1.7,2.5c-7.9,4.3-16,8.1-24.7,10.2
		c-3.8,0.9-7.7,1.7-11.5,2.4c-2.1,0.4-3.9-0.3-5.6-1.6c-3.8-2.8-8.1-3.4-12.6-2c-1.7,0.5-3.2,2.6-3.4,4.7c0,0.8-0.1,1.7,0.1,2.5
		c0.4,2,1.8,3,5,3.3c3.6,0.3,7.2,0,10.7-1.3c3.8-1.3,7.8-1.4,11.7-2.1c4.3-0.8,8.6-1.8,12.8-3c5.1-1.5,10.2-3.4,15.1-5.3
		c0.2-0.1,0.5-0.2,0.8-0.2c0.9-0.1,1.4,0.1,1.3,1.1c-0.2,2.6-1.5,4.8-3,6.8c-4.5,6-10.3,10.5-16.7,14.3c-7.3,4.3-15.3,6.9-23.6,8.5
		c-3.5,0.7-7.1,1-10.7,1.3c-3.3,0.3-6.7,0.2-10,0.1c-5.4-0.2-10.7-0.7-16-1.6c-3.5-0.6-7-1.4-10.5-2.5c-8.5-2.7-16.2-6.5-22.3-13.2
		c-3.2-3.5-4.9-7.5-5.7-12c-0.6-3.1-1-6.2-1.4-9.3c-0.3-2.4-0.7-4.8-1-7.2c-0.2-1.9-0.5-3.8-0.6-5.7c-0.1-2.4-0.3-4.9-0.2-7.3
		c0.2-4.8,0.4-9.6,1-14.4c0.8-6.7,2.4-13.2,4-19.7c1-4,3.9-6.5,7.2-8.5c5.6-3.5,11.9-5.6,18.3-7.1c4.5-1.1,9.1-1.8,13.7-2.3
		c3.2-0.4,6.4-0.2,9.6-0.5c0.4,0,0.9,0,1.3,0.4c-0.3,0.3-0.6,0.2-1,0.2c-10.4,0.3-20.6,1.6-30.4,4.9c-5.5,1.8-10.8,4.2-15.2,8.3
		c-1,0.9-1.7,1.9-2.1,3.2c-1.9,5.9-3.2,11.9-4.2,17.9c-0.3,1.6-0.5,3.2-0.6,4.8c-0.5,3-0.7,6.1-0.8,9.2c-0.3,1.5-0.2,3.1-0.1,4.6
		c-0.2,2.1,0.2,4.3,0.3,6.4c0.1,0.9-0.1,1.9,0.3,2.8c0.1,1.5,0.2,3.1,0.5,4.6c0,1.6,0.3,3.1,0.6,4.6c0.5,4.3,1.3,8.6,2,12.9
		c0.5,2.9,2.2,5.3,4.1,7.6c4.3,5.2,9.6,8.9,15.8,11.5c3,1.5,6.2,2.5,9.5,3.4c4.4,1.3,8.9,2,13.5,2.6c4.7,0.6,9.5,0.8,14.2,0.8
		c7.6,0.1,15.1-0.8,22.5-2.5c0.1,0,0.3-0.1,0.4-0.2c1.5-0.5,3.1-0.9,4.6-1.4c4.1-1.3,8-3,11.7-5.1c1.1-0.6,2.2-1.1,3.1-1.9
		c1.3-0.6,2.4-1.6,3.6-2.4c1-0.6,1.9-1.4,2.7-2.2c0.3-0.1,0.6-0.3,0.8-0.4c2.5-2.2,4.8-4.7,7-7.2c1.8-2.1,2.9-4.5,3.2-7.3
		c0,0,0-0.1,0.1-0.1c0,0-0.1,0.1-0.1,0.1C187,150.2,182.5,151.8,177.9,153.4z"/>
	<path fill-rule="evenodd" clip-rule="evenodd" fill="#192B37" d="M136.1,68.9c-1.6,0.1-3.3,0.1-4.9,0c0.1-0.3,0.3-0.4,0.5-0.4
		c1.3,0,2.6,0,3.9,0C135.9,68.5,136,68.7,136.1,68.9z"/>
	<path fill-rule="evenodd" clip-rule="evenodd" fill="#192B37" d="M128.3,68.9c-0.3,0-0.6,0-1,0C127.6,68.3,128,68.3,128.3,68.9z"/>
	<path fill-rule="evenodd" clip-rule="evenodd" fill="#A5A5A5" d="M215,66.2c2.1,0,4.1,1.9,4.3,4.2c0.3,2.3-1.3,4.5-3.6,5l-0.1-0.1
		c1-2,1.3-4.1,0.8-6.3C216.2,68,215.5,67.1,215,66.2L215,66.2z"/>
	<path fill-rule="evenodd" clip-rule="evenodd" fill="#A5A5A5" d="M215.7,75.4c0,0-0.1,0.1-0.1,0.1c0,0-0.1-0.1-0.1-0.1
		C215.5,75.4,215.6,75.4,215.7,75.4C215.6,75.4,215.7,75.4,215.7,75.4z"/>
	<path fill-rule="evenodd" clip-rule="evenodd" fill="#A5A5A5" d="M215,66.2C215,66.2,214.9,66.2,215,66.2c-0.1-0.1-0.1-0.1-0.1-0.1
		C214.9,66.1,214.9,66.2,215,66.2L215,66.2z"/>
	<path fill-rule="evenodd" clip-rule="evenodd" fill="#A5A5A5" d="M51.3,66c-2.3,2.9-2.4,6-0.9,9.2c-1.8,0.1-3.8-2.4-3.7-4.6
		C46.9,68,49.5,65.8,51.3,66z"/>
	<path fill-rule="evenodd" clip-rule="evenodd" fill="#708390" d="M191.5,148.5c0,0,0.1,0,0.1-0.1
		C191.6,148.5,191.6,148.6,191.5,148.5L191.5,148.5z"/>
	<path fill="#925F41" d="M169,106.8c-1.1-21.3-16.6-38.3-35.7-38.3c-19.4,0-35.1,17.5-35.7,39.3c-4.4,8-4.4,18.6-4.4,28.8
		c0,23.4,14.1,36.5,30,45.7c3.4,2,6.4,4.1,10.4,4.1c3.2,0,6.7-2.5,9.4-4.1c18.2-10.9,30.5-22.4,30.5-46.8
		C173.4,125,173.7,115,169,106.8z"/>
	<g>
		<path d="M131.1,158c-0.1,4,0.2,8,0,12c-0.2,4.7,6.4,4.7,6.6,0c0.2-4-0.1-8,0-12C137.9,153.3,131.3,153.3,131.1,158L131.1,158z"/>
	</g>
	<polygon fill="#E1E2E3" points="128.3,92.7 113.3,148.4 155.3,148.9 139.5,92.8 	"/>
	<path d="M113.2,150.9c0.6,12.1,21.2,14.9,21.2,14.9s20.6-2.8,21.2-14.9C156.3,138.8,112.6,138.8,113.2,150.9z"/>
	<path fill="#FFFFFF" d="M144,146.3c0,0,7.9,1.6,6.6,6.6C150.6,152.9,154.9,145.7,144,146.3z"/>
	<path fill="#E1E2E3" d="M139.7,93.4c0,1.7-2.6,3.2-5.8,3.2c-3.2,0-5.7-1.6-5.7-3.3c0-1.7,2.5-3,5.7-3
		C137.1,90.3,139.7,91.7,139.7,93.4z"/>
	<path fill="#E1E2E3" d="M133.9,68.5c-6.4,0.6-5.8,6.6-5.8,6.6c3.3,8.1,0.2,17.5,0.2,17.5l5.6-1l5.6,1c0,0-3.1-9.4,0.2-17.5
		C139.7,75.2,140.3,69.2,133.9,68.5z"/>
	<g id="oreille-d_1_">
		<path fill="#6F482F" d="M188,77c0,0-21.8,4.9-25.7,9.3L146.9,72c0,0,2.9-2.4,7.1-3.5L188,77z"/>
		<path fill="#925F41" d="M152.7,69.1c5.5-3.2,16.4-0.5,23.1,1.2c5.4,1.4,15.7,4.4,16.7,9.2c0,0.1,0.1,0.2,0.1,0.4
			c0.3,5.6-3.7,9.4-7.6,13.6c-2,2.1-5.8,6.2-10.6,4.8c-4.1-1.2-6.2-8.5-7.4-10.9c-1.4-2.9-2.7-5.9-4.3-8.8c-1.7-3.1-6.1-5.3-9.6-7.3
			C152.1,70.8,151.9,69.6,152.7,69.1z"/>
	</g>
	<g id="oreil-d_1_">
		<g>
			<path fill="#221F1F" d="M160.2,95.8c1.3,2.5,0.4,5.6-2.1,7c-2.5,1.3-5.6,0.4-6.9-2.1c-1.3-2.5-0.4-5.6,2.1-7
				C155.8,92.3,158.9,93.3,160.2,95.8z"/>
			<path fill="#FFFFFF" d="M157.3,96.4c0.3,0.5,0.1,1.1-0.4,1.3c-0.5,0.3-1,0.1-1.3-0.4c-0.2-0.5-0.1-1.1,0.4-1.3
				C156.5,95.7,157,95.9,157.3,96.4z"/>
		</g>
		<ellipse opacity="0.2"  a:adobe-blending-mode="multiply" cx="155.2" cy="98.7" rx="10.3" ry="10.5"/>
	</g>
	<g id="oreille-g_1_">
		<path fill="#6F482F" d="M73.3,77c0,0,23.5,7.9,28,14.1l15.4-18.2c0,0-3.3-3.4-7.8-5.1L73.3,77z"/>
		<path fill="#925F41" d="M110.3,68.6c-6.1-4.6-17.4-1.7-24.5,0.1c-5.7,1.5-16.4,4.9-17.1,11.3c0,0.2-0.1,0.3-0.1,0.5
			c0,7.5,4.5,12.8,9,18.6c2.2,2.9,6.6,8.7,11.6,7c4.3-1.4,6-11,7.1-14.1c1.3-3.8,2.5-7.7,4-11.4c1.6-4,6.1-6.7,9.8-9.2
			C111,70.8,111.1,69.2,110.3,68.6z"/>
	</g>
	<g id="oeil-g_1_">
		<g>
			<path fill="#221F1F" d="M117.1,95.8c1.4,2.5,0.4,5.6-2.2,7c-2.6,1.3-5.9,0.4-7.3-2.1c-1.4-2.5-0.4-5.6,2.2-7
				C112.4,92.3,115.6,93.3,117.1,95.8z"/>
			<path fill="#FFFFFF" d="M114,96.4c0.3,0.5,0.1,1.1-0.4,1.3c-0.5,0.3-1.1,0.1-1.4-0.4c-0.3-0.5-0.1-1.1,0.4-1.3
				C113.1,95.7,113.7,95.9,114,96.4z"/>
		</g>
		<ellipse opacity="0.2"  a:adobe-blending-mode="multiply" cx="111.7" cy="98.8" rx="11" ry="10.5"/>
	</g>
	<path fill-rule="evenodd" clip-rule="evenodd" fill="#191719" d="M196.9,118.7c-0.1,7-0.3,13.8-1.2,20.7c-0.7,5.1-1.7,10.1-3.2,15
		c-0.7,2.2-2.3,3.9-3.8,5.7c-7.2,8.5-16.2,14.3-26.6,18.2c-5.7,2.1-11.6,3.4-17.7,4.2c-9.4,1.1-18.8,0.9-28.2-0.3
		c-8.4-1-16.6-3.1-24.2-7c-7.1-3.6-13.2-8.5-17.2-15.5c-1.6-2.9-2-6.1-2.5-9.2c-1.4-8-2.5-16.1-2.9-24.3c-0.3-5.8-0.1-11.6,0.6-17.3
		c0.9-7.8,2.6-15.4,4.6-23c1.2-4.6,4.1-7.5,7.8-9.9c5.5-3.6,11.7-5.8,18.1-7.3c10-2.4,20.1-3.2,30.3-3.3c11.5-0.1,22.9,1,34,4
		c8.1,2.1,15.9,5.1,22.9,9.6c1,0.6,1.7,1.5,2.2,2.5c3.4,7.4,5.5,15,6.5,23.1C197,109.2,197.1,114,196.9,118.7z M136.1,68.9
		c-0.1-0.3-0.2-0.4-0.5-0.4c-1.3,0-2.6,0-3.9,0c-0.3,0-0.4,0.1-0.5,0.4c-1,0-2,0-2.9,0c-0.3-0.6-0.6-0.6-1,0c-0.5,0-1.1,0-1.6,0
		c-0.4-0.3-0.9-0.4-1.3-0.4c-3.2,0.4-6.4,0.2-9.6,0.5c-4.6,0.5-9.2,1.2-13.7,2.3C94.7,73,88.5,75,82.8,78.6
		c-3.3,2.1-6.2,4.6-7.2,8.5c-1.7,6.5-3.2,13-4,19.7c-0.6,4.8-0.8,9.6-1,14.4c-0.1,2.4,0.1,4.9,0.2,7.3c0.1,1.9,0.4,3.8,0.6,5.7
		c0.3,2.4,0.7,4.8,1,7.2c0.4,3.1,0.8,6.2,1.4,9.3c0.8,4.5,2.6,8.6,5.7,12c6.1,6.7,13.9,10.5,22.3,13.2c3.4,1.1,6.9,1.9,10.5,2.5
		c5.3,0.9,10.7,1.5,16,1.6c3.3,0.1,6.7,0.1,10-0.1c3.6-0.3,7.1-0.6,10.7-1.3c8.3-1.6,16.3-4.2,23.6-8.5c6.4-3.8,12.1-8.3,16.7-14.3
		c1.5-2,2.8-4.2,3-6.8c0.1-1.1-0.4-1.3-1.3-1.1c-0.3,0-0.5,0.1-0.8,0.2c-5,1.9-10,3.8-15.1,5.3c-4.2,1.3-8.5,2.3-12.8,3
		c-3.9,0.7-7.9,0.8-11.7,2.1c-3.5,1.3-7.1,1.5-10.7,1.3c-3.3-0.2-4.6-1.2-5-3.3c-0.2-0.8-0.1-1.7-0.1-2.5c0.1-2,1.6-4.2,3.4-4.7
		c4.5-1.4,8.8-0.8,12.6,2c1.8,1.3,3.5,2,5.6,1.6c3.9-0.7,7.7-1.5,11.5-2.4c8.8-2.1,16.9-5.9,24.7-10.2c1-0.5,1.5-1.4,1.7-2.5
		c0.3-1.9,0.6-3.8,0.7-5.7c0.2-4.1,0.4-8.2,0.5-12.4c0.1-4.3,0-8.6-0.4-12.8c-0.3-2.8-0.6-5.6-1.1-8.4c-0.7-4.1-2.2-7.9-3.5-11.8
		c-1.2-3.4-3.4-5.7-6.6-7.2c-2.9-1.3-5.8-2.7-8.7-3.8c-4.6-1.8-9.4-3.3-14.2-4.4c-4.3-1-8.7-1.7-13.1-2.2c-3.2-0.4-6.5-0.4-9.7-0.4
		c-0.2,0-0.3,0.1-0.5,0.2C137,68.9,136.6,68.9,136.1,68.9z"/>
	<path fill-rule="evenodd" clip-rule="evenodd" fill="#FCFCFC" d="M90.9,41.5c-1.3,5-2.4,10-2.6,15.1c-0.1,3.1,0,6.2,0.5,9.3
		c0.1,0.6,0.1,1-0.6,1.3c-4.3,2-8.4,4.5-12.1,7.6c-0.3,0.3-0.6,0.3-1,0.2c-2-0.4-4-0.5-5.9,0.3c-2,0.9-3,2.5-3.4,4.6
		c-0.8,3.7-1.1,7.5-1.4,11.3c-0.2,2.8-0.3,5.5-0.5,8.3c0,0.6-0.2,0.7-0.8,0.7c-0.8-0.1-1.9,0.4-2.4-0.1c-0.5-0.5,0-1.6,0-2.4
		c0-1.3,0.2-2.5,0.2-3.8c0-0.3,0.1-0.5,0.2-0.7c1-1.3,1.1-2.7,1.1-4.2c0.1-3.1-0.3-6.3,0.3-9.4c1-4.9,2.5-9.7,4.8-14.2
		c2.6-5.3,6-10,10.2-14.2c3.9-3.8,8.1-7.2,13-9.6C90.8,41.4,90.8,41.4,90.9,41.5z"/>
	<path fill-rule="evenodd" clip-rule="evenodd" fill="#F9F9F9" d="M196.9,118.7c0.2-4.7,0.1-9.4-0.5-14.2c-1-8-3.2-15.7-6.5-23.1
		c-0.5-1.1-1.2-1.9-2.2-2.5c-7.1-4.6-14.9-7.5-22.9-9.6c-11.1-2.9-22.5-4.1-34-4c-10.2,0.1-20.4,0.9-30.3,3.3
		c-6.4,1.5-12.5,3.7-18.1,7.3c-3.7,2.4-6.6,5.3-7.8,9.9c-2,7.6-3.6,15.2-4.6,23c-0.7,5.8-1,11.5-0.6,17.3c0.5,8.2,1.6,16.2,2.9,24.3
		c0.5,3.2,0.9,6.3,2.5,9.2c4,7.1,10.1,11.9,17.2,15.5c7.6,3.9,15.8,5.9,24.2,7c9.4,1.2,18.8,1.4,28.2,0.3c6.1-0.7,12-2.1,17.7-4.2
		c10.4-3.8,19.4-9.7,26.6-18.2c1.5-1.7,3.2-3.4,3.8-5.7c1.4-4.9,2.5-9.9,3.2-15C196.6,132.5,196.7,125.6,196.9,118.7z M199.8,103.5
		c-0.2,0.6,0,1.2-1,1.2c-0.9,0-1,0.8-0.9,1.5c0.1,4.1,0,8.2,0.2,12.3c0.1,2.9-0.5,5.8,1,8.5c1,1.7,0.7,3.7,0.4,5.6
		c-0.8,5.7-1.5,11.5-3.2,17c-1.2,4.1-2.9,7.9-4.5,11.9c-0.4,1.1-1.4,1.9-2.2,2.7c-7.7,8-16.9,13.4-27.3,17.1c-12.3,4.3-25,5.7-38,5
		c-8.5-0.5-16.9-1.7-25-4.5c-9-3-17-7.5-23.3-14.7c-1.8-2-3.3-4.2-4.5-6.6c-1.2-2.3-1.3-4.9-1.8-7.3c-1.2-5.8-2.5-11.5-3.2-17.4
		c-0.2-1.6-0.4-3.3-0.5-4.9c0-0.3,0-0.7,0.2-1c0.5-0.8,0.7-1.7,0.9-2.6c0.1-0.6,0.2-1.3,0.8-1.7c0.4-0.2,0.3-0.8,0.3-1.2
		c0.1-6.1,0.2-12.2,0.3-18.3c0-0.9-0.1-1.6-1.2-1.6c-0.5,0-0.5-0.3-0.4-0.6c0.1-0.4-0.1-1,0.5-1.1c1.9-0.3,2.3-0.7,2.4-2.6
		c0.1-2.1,0.3-4.1,0.5-6.2c0.5-5.2,1.9-10.2,4-15c0.3-0.6,0.7-1.1,1.2-1.5c5.3-5.1,11.6-8.6,18.5-11.3c8-3.1,16.4-4.7,24.9-5.6
		c8.4-0.8,16.8-0.9,25.3-0.1c9.6,0.9,19.1,2.7,28.1,6.3c5.4,2.2,10.3,4.9,15,8.3c3.9,2.8,6.2,6.4,7.4,11.1c1.2,4.8,1.7,9.6,2,14.5
		C196.7,103.4,197.4,103.9,199.8,103.5z"/>
	<path fill-rule="evenodd" clip-rule="evenodd" fill="#FCFCFC" d="M171,38.8c8.3,3.4,15.4,8.3,21.1,15.1c5,6,8.3,13,10.5,20.5
		c0.9,3.1,1.2,6.1,1.1,9.3c-0.1,1.8,0,3.6,0,5.4c0,1.5,0.3,2.8,1.2,4.1c1.3,2,1.2,4.3,1.2,6.5c0,0.5-0.3,0.4-0.6,0.4
		c-0.9,0-1.8-0.1-2.8,0c-0.7,0-0.5-0.5-0.5-0.8c-0.2-3.2-0.4-6.4-0.6-9.6c-0.3-3.2-0.5-6.3-1.3-9.4c-0.8-3.3-2.6-4.8-6-5
		c-1.3-0.1-2.5-0.1-3.7,0.6c-0.4,0.3-0.6-0.1-0.7-0.2c-4.7-4-9.9-7-15.6-9.4c-0.5-0.2-0.9-0.3-0.7-1c1-6.5,0.6-12.9-0.9-19.3
		C172.2,43.6,171.6,41.3,171,38.8z"/>
	<path fill-rule="evenodd" clip-rule="evenodd" fill="#F9F9F9" d="M200.5,97.8c0,0.6,0.1,1.3,0.1,1.9c0.1,1.4-0.4,2-1.8,2.3
		c-0.8,0.2-0.6-0.4-0.6-0.8c-0.2-1.9-0.3-3.7-0.4-5.6c-0.5-6.1-2.1-12-4.7-17.6c-0.6-1.2-0.5-1.2,0.8-1.2c2.9,0,4.5,1.2,5.1,4.1
		c0.8,3.9,1.1,7.8,1.4,11.7C200.4,94.3,200.5,96,200.5,97.8C200.6,97.8,200.5,97.8,200.5,97.8z"/>
	<path fill-rule="evenodd" clip-rule="evenodd" fill="#F9F9F9" d="M73.8,76.4c-2,4-3.4,8.1-4.3,12.4c-0.8,3.8-1.1,7.6-1.3,11.4
		c0,0.5,0.2,1.2-0.6,1.2c-0.8,0-1.9-0.8-1.9-1.4c0.3-6.5,0.6-13,1.7-19.4C68,77.2,69.9,75.9,73.8,76.4z"/>
</g>
</svg>
