<?xml version="1.0" encoding="utf-8"?>
<!-- Generator: Adobe Illustrator 16.0.0, SVG Export Plug-In . SVG Version: 6.00 Build 0)  -->
<!DOCTYPE svg PUBLIC "-//W3C//DTD SVG 1.1//EN" "http://www.w3.org/Graphics/SVG/1.1/DTD/svg11.dtd">
<svg version="1.1" id="Calque_1" xmlns="http://www.w3.org/2000/svg" xmlns:xlink="http://www.w3.org/1999/xlink" x="0px" y="0px"
	 width="352.385px" height="399.166px" viewBox="0 0 352.385 399.166" enable-background="new 0 0 352.385 399.166"
	 xml:space="preserve">
<g id="dog">
	<path id="queue" fill="#925F41" d="M250.338,368.904c0,0-0.286-0.55-0.832-1.592c-0.489-1.021-1.394-2.456-2.262-4.38
		c-0.91-1.897-2.084-4.228-3.099-7.065c-1.026-2.852-2.052-6.164-2.452-10.339c-0.202-2.104-0.197-4.405,0.294-7.107
		c0.529-2.663,1.563-5.784,4.097-8.824l0.461-0.56l0.231-0.277l0.119-0.137c0.286-0.245-0.557,0.433,0.66-0.561l0.03-0.037
		l0.517-0.546l0.542-0.551c0.184-0.18,0.245-0.306,0.892-0.729c1.025-0.697,2.135-1.36,3.277-1.943
		c1.13-0.565,1.767-0.763,2.712-1.13c3.487-1.309,6.728-1.652,9.664-1.822c5.929-0.296,11.128,0.4,15.912,1.238
		c2.414,0.442,4.686,0.786,6.789,1.237c1.026,0.198,2.045,0.386,2.885,0.514c0.482,0.089,0.823,0.112,1.155,0.146l0.511,0.062
		l0.028,0.004c0.27,0.016-2.226-0.122-1.143-0.061h0.108h0.216l0.441-0.005l3.516,0.081l0.88,0.023l0.368-0.1
		c0.235-0.056,0.468-0.104,0.705-0.132c0.786,0.01,2.35-0.4,3.729-0.621c2.624-0.884,5.289-1.85,7.524-3.398
		c2.096-1.566,4.208-3.275,5.507-5.304c1.309-1.981,2.461-4.179,2.707-6.513c0.085-0.575,0.248-1.195,0.293-1.79
		c-0.039-0.593-0.086-1.176-0.086-1.788c0.094-1.261-0.255-2.404-0.523-3.566c-0.357-2.424-1.548-4.415-2.223-6.321
		c-1.942-3.397-3.246-5.736-3.246-5.736s0.622,0.108,1.779,0.419c1.113,0.353,2.95,0.691,5.056,1.623
		c1.92,1.148,4.789,2.198,7.186,4.669c1.317,1.139,2.649,2.456,3.732,4.179c0.6,0.819,1.16,1.709,1.743,2.631
		c0.487,0.966,0.874,2.024,1.32,3.098c1.788,4.329,2.132,9.713,1.082,15.135c-1.058,5.479-3.941,10.67-7.83,15.271
		c-3.986,4.523-9.254,8.119-15.16,10.581c-3.073,0.993-5.892,2.184-9.792,2.546l-2.769,0.339l-1.366,0.132l-0.881,0.005l-3.516,0.01
		l-0.438-0.01l-1.659-0.081l-1.234-0.178c-0.832-0.108-1.646-0.235-2.312-0.382c-1.467-0.264-2.733-0.555-3.993-0.837
		c-2.449-0.537-4.697-1.276-6.782-1.821c-4.198-1.168-7.958-2.222-10.826-2.772c-1.452-0.315-2.577-0.367-3.146-0.532
		c-0.066-0.037-0.476-0.061-0.287-0.174c0.204-0.137,0.379-0.354,0.474-0.607c0.156-0.244-0.168-0.038-0.385,0.09l-0.678,0.366
		l-0.688,0.354l-0.037,0.015c1.192-0.971,0.328-0.273,0.589-0.485h-0.006l-0.022-0.015l-0.047-0.018
		c-0.73-0.551-2.552,1.66-3.544,4.217c-1.114,2.603-1.878,5.543-2.561,8.208c-0.697,2.78-1.313,5.204-1.812,7.195
		c-0.461,2.032-1.087,3.708-1.426,4.801C250.571,368.33,250.338,368.904,250.338,368.904z"/>
	<g id="oreille-g">
		<path fill="#6F482F" d="M12.834,13.199c0,0,47.036,31.668,53.78,48.842l42.392-35.193c0,0-5.471-9.874-14.333-16.383
			L12.834,13.199z"/>
		<path fill="#925F41" d="M97.193,13.25C86.272-1.033,60.227-0.384,43.99,0.276C30.956,0.803,6.017,3.095,1.355,17.905
			c-0.165,0.348-0.3,0.729-0.385,1.167c-3.582,17.86,3.541,33.01,10.288,49.388c3.403,8.264,9.942,24.303,21.715,23.15
			c9.977-0.983,18.425-22.957,22.35-29.809c4.796-8.373,9.187-16.919,14.34-25.095c5.53-8.763,16.515-12.674,25.689-16.665
			C97.718,19.016,98.732,15.27,97.193,13.25z"/>
	</g>
	<g id="oreille-d">
		<path fill="#6F482F" d="M339.557,13.199c0,0-47.03,31.668-53.776,48.842l-42.393-35.193c0,0,5.472-9.874,14.332-16.383
			L339.557,13.199z"/>
		<path fill="#925F41" d="M255.201,13.25c10.924-14.283,36.967-13.634,53.205-12.975c13.032,0.527,37.972,2.819,42.635,17.629
			c0.163,0.348,0.302,0.729,0.386,1.167c3.582,17.86-3.544,33.01-10.287,49.388c-3.403,8.264-9.945,24.303-21.719,23.15
			c-9.974-0.983-18.422-22.957-22.353-29.809c-4.791-8.373-9.181-16.919-14.34-25.095c-5.53-8.763-16.512-12.674-25.687-16.665
			C254.679,19.016,253.663,15.27,255.201,13.25z"/>
	</g>
	<g id="corps">
		<path fill="#FFFFFF" d="M255.728,206.328H102.135c-11.161,23.08-17.755,51.37-17.755,81.98c0,44.969,14.215,84.977,36.305,110.722
			h37.42c-1.05-3.925-1.643-8.208-1.643-12.708c0-18.746,10.086-33.947,22.532-33.947c12.446,0,22.532,15.201,22.532,33.947
			c0,4.5-0.591,8.783-1.643,12.708h37.297c22.087-25.745,36.3-65.753,36.3-110.722C273.48,257.698,266.886,229.408,255.728,206.328z
			"/>
		<path d="M164.696,399.166c0.028-0.471,0.073-0.928,0.073-1.393c0-15.606-13.076-28.262-29.203-28.262
			c-16.129,0-29.198,12.655-29.198,28.262c0,0.465,0.044,0.922,0.071,1.393H164.696z"/>
		<path d="M253.525,399.166c0.033-0.471,0.076-0.928,0.076-1.393c0-15.606-13.074-28.262-29.203-28.262S195.2,382.167,195.2,397.773
			c0,0.465,0.043,0.922,0.071,1.393H253.525z"/>
		<path fill="#925F41" d="M304.471,112.46C300.665,51.301,245.256,2.789,177.453,2.789c-68.924,0-125.015,50.137-127.137,112.702
			c-15.542,22.869-15.681,53.295-15.681,82.592c0,67.075,50.24,104.594,106.685,131.006c12.168,5.694,22.934,11.837,37.124,11.837
			c11.239,0,23.875-7.178,33.532-11.837c64.752-31.241,108.348-64.086,108.348-133.985
			C320.323,164.503,321.309,135.921,304.471,112.46z"/>
		<g>
			<path d="M167.691,295.829c-0.484,11.865,0.584,23.743,0,35.603c-0.691,14.059,21.833,13.992,22.521,0
				c0.588-11.859-0.48-23.737,0-35.603C190.79,281.771,168.261,281.818,167.691,295.829L167.691,295.829z"/>
		</g>
		<polygon fill="#E1E2E3" points="157.808,101.264 106.368,267.242 250.683,268.682 196.482,101.598 		"/>
		<path d="M106.109,274.665c2.047,36.087,72.873,44.418,72.873,44.418s70.821-8.331,72.866-44.418
			C253.907,238.594,104.057,238.594,106.109,274.665z"/>
		<path fill="#FFFFFF" d="M211.975,260.945c0,0,27.046,4.9,22.537,19.626C234.512,280.571,249.167,259.303,211.975,260.945z"/>
		<path fill="#E1E2E3" d="M196.934,103.598c0,5.186-8.916,9.394-19.915,9.394c-11.003,0-19.54-4.771-19.54-9.958
			c0-5.187,8.537-8.839,19.54-8.839C188.018,94.195,196.934,98.407,196.934,103.598z"/>
		<path fill="#E1E2E3" d="M177.069,10.465c-22.051,2.442-19.915,25.028-19.915,25.028c11.163,30.525,0.654,65.771,0.654,65.771
			l19.261-3.878l19.266,3.878c0,0-10.507-35.246,0.653-65.771C196.988,35.493,199.125,12.907,177.069,10.465z"/>
		<path fill="#925F41" d="M116.755,349.401c-1.798-3.968-5.13-3.718-8.21-6.453c-2.822-2.479-3.076-5.953-3.848-9.181
			c-2.235-7.7-9.774-8.594-16.538-5.479c2.565,13.2,6.377,25.603,11.268,36.896c2.057-0.521,4.066-1.284,5.784-1.887
			C111.879,361.312,120.343,357.839,116.755,349.401z"/>
	</g>
	<g id="oreil-d">
		<g>
			<path fill="#221F1F" d="M253.351,112.037c4.415,7.968,1.325,17.879-6.901,22.158c-8.223,4.264-18.475,1.275-22.885-6.688
				c-4.414-7.963-1.322-17.875,6.904-22.143C238.693,101.09,248.934,104.087,253.351,112.037z"/>
			<path fill="#FFFFFF" d="M243.712,113.919c0.833,1.487,0.245,3.355-1.294,4.155c-1.546,0.8-3.471,0.235-4.297-1.252
				c-0.826-1.497-0.25-3.355,1.299-4.16C240.961,111.862,242.884,112.422,243.712,113.919z"/>
		</g>
		<path opacity="0.2" d="M271.069,121.478c0,18.36-15.378,33.236-34.35,33.236s-34.352-14.876-34.352-33.236
			c0-18.359,15.38-33.241,34.352-33.241S271.069,103.119,271.069,121.478z"/>
	</g>
	<g id="oeil-g">
		<g>
			<path fill="#221F1F" d="M130.867,112.037c4.413,7.968,1.325,17.879-6.902,22.158c-8.222,4.264-18.472,1.275-22.885-6.688
				c-4.412-7.963-1.32-17.875,6.904-22.143C116.208,101.09,126.45,104.087,130.867,112.037z"/>
			<path fill="#FFFFFF" d="M121.23,113.919c0.828,1.487,0.245,3.355-1.294,4.155c-1.549,0.8-3.474,0.235-4.297-1.252
				c-0.828-1.497-0.252-3.355,1.297-4.16C118.482,111.862,120.397,112.422,121.23,113.919z"/>
		</g>
		<path opacity="0.2" d="M148.586,121.478c0,18.36-15.377,33.236-34.349,33.236c-18.974,0-34.356-14.876-34.356-33.236
			c0-18.359,15.382-33.241,34.356-33.241C133.208,88.237,148.586,103.119,148.586,121.478z"/>
	</g>
	<g id="ombre" opacity="0.4">
		<path d="M183.604,3.005c-2.048-0.09-4.088-0.217-6.156-0.217c-26.36,0-50.824,7.352-71.127,19.908
			c-2.447-3.459-6.461-8.415-11.658-12.231H94.64C82.622-0.929,59.074-0.336,43.979,0.276C30.949,0.803,6.007,3.095,1.348,17.905
			c-0.167,0.348-0.303,0.729-0.39,1.167c-3.579,17.86,3.541,33.01,10.29,49.388c3.403,8.264,9.945,24.303,21.715,23.15
			c9.975-0.983,18.425-22.957,22.35-29.809c1.741-3.041,3.426-6.095,5.116-9.154c2.876,3.384,5.074,6.584,6.175,9.394l0.014-0.009
			c-9.804,15.879-15.656,34.069-16.314,53.458c-15.538,22.869-15.677,53.295-15.677,82.592c0,42.767,20.442,73.509,49.88,97.031
			c0.367,11.459,1.642,22.557,3.751,33.137c-0.039,0.015-0.076,0.019-0.108,0.038c2.565,13.2,6.376,25.603,11.267,36.896
			c0.108-0.027,0.211-0.064,0.32-0.099c3.008,6.844,6.41,13.254,10.152,19.203c-2.25,4.009-3.53,8.602-3.53,13.483
			c0,0.465,0.047,0.922,0.071,1.393h58.26c0.023-0.471,0.07-0.928,0.07-1.393c0-7.371-2.937-14.059-7.713-19.084
			c2.306-15.065,11.241-26.314,21.941-26.314c1.583,0,3.125,0.274,4.617,0.745V3.005z"/>
	</g>
</g>
</svg>
