<?xml version="1.0" encoding="utf-8"?>
<!-- Generator: Adobe Illustrator 16.0.0, SVG Export Plug-In . SVG Version: 6.00 Build 0)  -->
<!DOCTYPE svg PUBLIC "-//W3C//DTD SVG 1.1//EN" "http://www.w3.org/Graphics/SVG/1.1/DTD/svg11.dtd">
<svg version="1.1" id="ensemble" xmlns="http://www.w3.org/2000/svg" xmlns:xlink="http://www.w3.org/1999/xlink" x="0px" y="0px"
	 width="1920px" height="1080px" viewBox="0 0 1920 1080" enable-background="new 0 0 1920 1080" xml:space="preserve">
<g id="back">
	<defs>
		<rect id="SVGID_1_" y="-0.001" width="1920.001" height="1080.001"/>
	</defs>
	<clipPath id="SVGID_2_">
		<use xlink:href="#SVGID_1_"  overflow="visible"/>
	</clipPath>
	<g id="line-right" clip-path="url(#SVGID_2_)">
		<path fill="#FF56C9" d="M1330.071,227.441c0,0,3.207,1.219,9.225,3.506c1.506,0.566,3.178,1.225,5.037,1.9
			c1.865,0.656,3.9,1.373,6.1,2.148s4.563,1.607,7.084,2.496c2.543,0.827,5.246,1.707,8.1,2.637
			c5.689,1.921,12.08,3.756,19.008,5.837c3.473,1.013,7.117,1.96,10.879,3.001c1.887,0.504,3.795,1.062,5.758,1.545
			c1.963,0.486,3.959,0.98,5.986,1.482c16.221,4.023,34.684,7.926,54.996,11.08c20.311,3.16,42.469,5.574,65.969,6.73
			c5.871,0.377,11.836,0.43,17.865,0.629c3.016,0.121,6.053,0.055,9.105,0.088c3.051-0.001,6.121,0.044,9.207,0.006
			c3.086-0.067,6.188-0.135,9.305-0.203c1.559-0.033,3.121-0.067,4.688-0.102c1.564-0.074,3.135-0.148,4.707-0.223
			c3.145-0.148,6.303-0.297,9.477-0.447c3.172-0.194,6.354-0.453,9.549-0.679c25.566-1.837,51.813-5.726,78.035-11.536
			c26.168-6.011,52.334-13.988,77.412-24.568c6.322-2.518,12.451-5.474,18.645-8.258c3.041-1.509,6.08-3.017,9.117-4.523
			l2.275-1.133l1.139-0.565l0.568-0.283l0.225-0.116l0.281-0.152l4.518-2.436l4.512-2.434l2.254-1.216l2.182-1.265
			c2.906-1.684,5.809-3.365,8.707-5.045c5.723-3.542,11.479-7.006,17.012-10.762c2.793-1.84,5.586-3.664,8.287-5.612
			c2.715-1.927,5.459-3.798,8.133-5.755c2.656-1.98,5.307-3.955,7.949-5.925c2.643-1.968,5.184-4.057,7.768-6.069
			c10.236-8.183,20.105-16.58,29.387-25.313c18.652-17.363,35.422-35.487,50.445-53.414c0.941-1.117,1.881-2.231,2.818-3.342
			c0.916-1.125,1.832-2.248,2.742-3.365c1.818-2.238,3.625-4.461,5.418-6.666c3.5-4.482,7.021-8.834,10.328-13.242
			c6.73-8.72,12.971-17.359,18.936-25.664c11.85-16.682,22.232-32.333,31.271-46.325c9.031-13.999,16.715-26.343,23.006-36.541
			c6.252-10.233,11.166-18.272,14.514-23.755c3.334-5.498,5.111-8.431,5.111-8.431l13.611,8.409c0,0-1.834,2.905-5.273,8.354
			c-3.461,5.44-8.539,13.42-15,23.576c-6.512,10.135-14.473,22.418-23.84,36.375c-9.377,13.951-20.158,29.58-32.471,46.262
			c-6.201,8.31-12.684,16.95-19.682,25.684c-3.438,4.41-7.1,8.773-10.736,13.261c-1.863,2.21-3.742,4.436-5.633,6.678
			c-0.947,1.12-1.898,2.243-2.852,3.371c-0.973,1.112-1.949,2.229-2.93,3.349c-15.617,17.959-33.049,36.128-52.408,53.503
			c-9.633,8.737-19.869,17.134-30.475,25.299c-2.678,2.009-5.313,4.091-8.049,6.054c-2.734,1.963-5.479,3.931-8.229,5.904
			c-2.768,1.947-5.605,3.811-8.414,5.727c-2.795,1.938-5.682,3.751-8.566,5.578c-5.723,3.73-11.658,7.162-17.572,10.673
			c-3.021,1.677-6.047,3.356-9.076,5.038l-2.271,1.26l-2.277,1.174l-4.555,2.352l-4.561,2.353l-0.633,0.321l-0.586,0.277
			l-1.17,0.558l-2.344,1.114c-3.127,1.48-6.256,2.962-9.387,4.443c-6.367,2.729-12.668,5.623-19.152,8.072
			c-25.732,10.305-52.443,17.916-79.055,23.519c-26.664,5.402-53.252,8.843-79.074,10.228c-3.229,0.168-6.441,0.371-9.641,0.509
			c-3.203,0.093-6.391,0.185-9.564,0.277c-1.586,0.046-3.168,0.091-4.746,0.138c-1.58,0.005-3.154,0.011-4.727,0.017
			c-3.141,0.011-6.268,0.022-9.375,0.033c-3.109-0.019-6.199-0.12-9.273-0.175c-3.072-0.088-6.129-0.079-9.162-0.256
			c-6.066-0.311-12.064-0.474-17.965-0.959c-23.617-1.594-45.832-4.426-66.16-7.969c-20.332-3.538-38.775-7.788-54.957-12.117
			c-2.023-0.54-4.014-1.072-5.973-1.594c-1.957-0.521-3.859-1.115-5.74-1.653c-3.752-1.112-7.385-2.126-10.844-3.204
			c-6.902-2.212-13.264-4.164-18.924-6.192c-2.84-0.981-5.527-1.911-8.057-2.786c-2.508-0.936-4.859-1.812-7.047-2.627
			s-4.211-1.57-6.064-2.262c-1.846-0.709-3.506-1.396-5.002-1.99C1333.257,228.719,1330.071,227.441,1330.071,227.441z"/>
	</g>
	<g id="line-center" clip-path="url(#SVGID_2_)">
		<path fill="#FF56C9" d="M-81.324,485.963c0,0,1.234-2.378,3.626-6.986c0.598-1.152,1.268-2.444,2.009-3.873
			c0.757-1.42,1.645-2.947,2.576-4.623c1.885-3.34,4.005-7.247,6.663-11.516c1.306-2.149,2.688-4.424,4.145-6.82
			c1.531-2.352,3.141-4.822,4.828-7.412c0.855-1.287,1.682-2.637,2.614-3.957c0.924-1.325,1.868-2.68,2.832-4.063
			c1.942-2.756,3.89-5.68,6.106-8.576c8.599-11.779,19.108-24.885,31.859-38.683c12.736-13.806,27.744-28.271,45.12-42.797
			c1.083-0.911,2.171-1.828,3.265-2.749c1.117-0.893,2.24-1.789,3.369-2.689c2.258-1.803,4.537-3.622,6.84-5.459
			c2.347-1.779,4.717-3.574,7.108-5.387c2.39-1.817,4.806-3.645,7.311-5.396c2.487-1.778,4.996-3.572,7.527-5.381
			c2.557-1.773,5.173-3.509,7.79-5.288c1.313-0.887,2.629-1.776,3.951-2.671c1.344-0.861,2.693-1.727,4.048-2.596
			c2.714-1.73,5.451-3.477,8.21-5.234c11.163-6.834,22.869-13.587,35.197-20.029c12.355-6.383,25.27-12.561,38.779-18.321
			c13.533-5.704,27.617-11.072,42.234-15.987c14.626-4.889,29.813-9.217,45.467-13.037c1.959-0.467,3.924-0.936,5.893-1.405
			l2.959-0.706l2.99-0.637c3.977-0.834,7.971-1.674,11.986-2.518c4.047-0.748,8.115-1.5,12.202-2.255
			c4.091-0.73,8.218-1.327,12.354-2.002c16.576-2.509,33.567-4.371,50.902-5.519c17.334-1.164,35.016-1.559,52.95-1.125
			c17.934,0.414,36.122,1.601,54.473,3.62c18.35,2.019,36.862,4.872,55.431,8.622c18.563,3.77,37.176,8.457,55.717,14.1
			c37.07,11.291,73.891,26.448,109.069,46.05c8.804,4.88,17.458,10.107,26.028,15.538c4.291,2.736,8.465,5.594,12.716,8.395
			c4.202,2.869,8.353,5.846,12.543,8.771c16.599,11.925,32.728,24.717,48.653,37.926c31.869,26.4,62.91,54.555,96.238,80.439
			c16.65,12.949,33.89,25.287,51.968,36.42c18.068,11.139,36.902,21.182,56.477,29.646c19.577,8.438,39.907,15.281,60.766,19.929
			c20.849,4.65,42.232,7.072,63.6,6.771c2.666-0.049,5.352-0.001,8.003-0.13c2.671-0.168,5.362-0.249,8.017-0.487
			c5.313-0.415,10.633-0.956,15.924-1.691c10.584-1.438,21.082-3.49,31.445-6.056c20.742-5.12,40.906-12.325,60.506-20.682
			c39.242-16.736,76.227-37.869,113.42-57.826c18.596-9.995,37.293-19.688,56.342-28.438c19.045-8.742,38.475-16.527,58.393-22.449
			c19.898-5.936,40.291-9.998,60.785-11.453c10.242-0.733,20.498-0.822,30.678-0.246c2.545,0.143,5.082,0.373,7.619,0.556
			c2.58,0.231,5.041,0.54,7.564,0.806c2.51,0.285,5.037,0.705,7.551,1.053c2.52,0.354,4.994,0.865,7.488,1.29
			c19.889,3.749,39.07,9.964,57.318,17.708c18.268,7.734,35.658,16.896,52.465,26.543c33.619,19.306,64.988,40.607,97.26,58.207
			c16.094,9.014,32.402,16.777,48.703,24.129c4.102,1.766,8.188,3.524,12.256,5.277l3.051,1.309l3.082,1.22
			c2.051,0.813,4.1,1.623,6.143,2.433c2.043,0.809,4.084,1.616,6.119,2.422l3.049,1.208l3.078,1.12
			c4.098,1.491,8.178,2.977,12.242,4.456l3.045,1.108l3.066,1.023c2.043,0.678,4.082,1.355,6.117,2.031s4.066,1.35,6.092,2.021
			s4.043,1.361,6.084,1.949c8.154,2.408,16.176,5.002,24.264,7.08c4.027,1.092,8.039,2.178,12.029,3.258
			c4.02,0.973,8.02,1.939,11.998,2.9c7.939,2.023,15.902,3.57,23.744,5.279c3.914,0.887,7.855,1.531,11.756,2.277
			c3.904,0.723,7.787,1.443,11.65,2.158c3.881,0.615,7.738,1.225,11.576,1.832c3.842,0.578,7.643,1.279,11.459,1.729
			c15.221,2.076,30.137,3.805,44.727,4.938c29.172,2.367,56.965,3.047,83.053,2.416c26.088-0.619,50.467-2.516,72.9-5.146
			c22.43-2.697,42.883-6.271,61.266-9.924c36.719-7.615,64.955-16.25,83.965-22.715c2.377-0.811,4.615-1.574,6.713-2.289
			c2.098-0.712,4.057-1.373,5.842-2.069c3.586-1.346,6.604-2.479,9.033-3.391c4.859-1.823,7.367-2.766,7.367-2.766l0.111,0.279
			c0,0-2.502,0.96-7.35,2.821c-2.426,0.932-5.436,2.088-9.014,3.461c-1.781,0.71-3.736,1.387-5.83,2.113
			c-2.094,0.732-4.328,1.514-6.701,2.342c-18.975,6.613-47.174,15.471-83.895,23.373c-18.379,3.816-38.855,7.496-61.318,10.313
			c-22.467,2.754-46.889,4.781-73.039,5.539c-26.146,0.75-54.023,0.268-83.289-2.039c-14.637-1.09-29.604-2.777-44.881-4.811
			c-3.83-0.439-7.646-1.131-11.502-1.699c-3.852-0.596-7.725-1.195-11.619-1.799c-3.879-0.707-7.777-1.416-11.697-2.129
			c-3.916-0.738-7.873-1.371-11.803-2.248c-7.875-1.689-15.871-3.217-23.846-5.221c-3.996-0.953-8.014-1.912-12.051-2.875
			c-4.01-1.072-8.039-2.148-12.086-3.23c-8.125-2.063-16.188-4.639-24.381-7.031c-2.053-0.584-4.078-1.27-6.115-1.938
			s-4.076-1.34-6.123-2.01c-2.045-0.672-4.096-1.346-6.148-2.02l-3.084-1.02l-3.061-1.104c-4.086-1.473-8.189-2.951-12.309-4.436
			l-3.094-1.115l-3.068-1.203c-2.045-0.809-4.094-1.617-6.146-2.43c-2.055-0.811-4.111-1.623-6.174-2.438l-3.094-1.224l-3.066-1.313
			c-4.09-1.758-8.195-3.521-12.316-5.293l-3.09-1.334l-3.059-1.426c-2.041-0.951-4.086-1.904-6.133-2.858
			c-4.088-1.932-8.238-3.757-12.283-5.868c-4.07-2.053-8.156-4.112-12.254-6.18c-4.08-2.098-8.066-4.357-12.127-6.539
			c-32.465-17.682-63.852-38.969-97.357-58.173c-16.744-9.597-34.031-18.686-52.141-26.338c-18.096-7.64-37.027-13.86-56.658-17.581
			c-2.457-0.423-4.912-0.936-7.379-1.285c-2.473-0.346-4.918-0.76-7.422-1.05c-2.494-0.267-5.045-0.589-7.5-0.813
			c-2.504-0.184-5.008-0.417-7.52-0.562c-10.047-0.587-20.172-0.518-30.291,0.189c-20.248,1.401-40.43,5.381-60.172,11.232
			c-19.762,5.836-39.082,13.534-58.059,22.205c-18.988,8.668-37.637,18.334-56.262,28.229
			c-37.23,19.792-74.363,40.824-113.826,57.476c-19.707,8.313-40.004,15.479-60.887,20.55c-10.434,2.54-21.004,4.563-31.662,5.971
			c-5.328,0.719-10.678,1.243-16.053,1.642c-2.686,0.229-5.355,0.3-8.033,0.458c-2.703,0.12-5.381,0.061-8.072,0.101
			c-21.508,0.216-42.998-2.31-63.922-7.068c-20.936-4.753-41.307-11.711-60.908-20.246c-19.619-8.518-38.481-18.614-56.569-29.803
			c-18.104-11.186-35.356-23.575-51.998-36.558c-33.335-25.947-64.502-53.974-96.381-80.313
			c-15.943-13.162-32.062-25.93-48.701-37.723c-4.193-2.896-8.338-5.838-12.547-8.68c-4.256-2.772-8.475-5.629-12.738-8.316
			c-8.572-5.371-17.226-10.538-26.026-15.357c-35.168-19.358-71.937-34.283-108.923-45.351
			c-18.499-5.536-37.066-10.097-55.568-13.785c-18.5-3.706-36.942-6.519-55.221-8.501c-36.559-3.959-72.453-4.635-106.973-2.387
			c-17.262,1.109-34.184,2.931-50.69,5.396c-4.118,0.664-8.234,1.25-12.301,1.969c-4.062,0.742-8.104,1.48-12.126,2.216
			c-4.016,0.835-8.011,1.667-11.986,2.493l-2.961,0.625l-2.946,0.696c-1.962,0.464-3.919,0.927-5.87,1.389
			c-15.592,3.773-30.722,8.052-45.296,12.893c-14.565,4.866-28.601,10.185-42.089,15.839c-13.463,5.719-26.339,11.84-38.684,18.126
			c-12.311,6.358-24.004,13.032-35.158,19.786c-2.757,1.74-5.492,3.467-8.205,5.178c-1.354,0.859-2.703,1.715-4.045,2.568
			c-1.322,0.884-2.639,1.765-3.949,2.642c-2.617,1.761-5.232,3.478-7.789,5.233c-2.531,1.791-5.04,3.566-7.527,5.326
			c-2.504,1.734-4.92,3.544-7.311,5.344c-2.393,1.795-4.763,3.573-7.111,5.334c-2.303,1.821-4.583,3.624-6.842,5.41
			c-1.129,0.893-2.252,1.78-3.371,2.664c-1.094,0.913-2.184,1.821-3.267,2.725c-17.388,14.4-32.41,28.754-45.229,42.412
			c-12.819,13.665-23.4,26.662-32.067,38.354c-2.234,2.875-4.199,5.776-6.157,8.513c-0.972,1.373-1.925,2.718-2.857,4.034
			c-0.94,1.312-1.775,2.651-2.638,3.93c-1.703,2.573-3.329,5.028-4.875,7.363c-1.475,2.381-2.875,4.639-4.197,6.772
			c-2.697,4.239-4.85,8.115-6.764,11.431c-0.947,1.664-1.847,3.18-2.618,4.592c-0.755,1.421-1.438,2.706-2.047,3.853
			c-2.437,4.585-3.694,6.952-3.694,6.952L-81.324,485.963z"/>
	</g>
</g>
</svg>
