<?xml version="1.0" encoding="utf-8"?>
<!-- Generator: Adobe Illustrator 16.0.0, SVG Export Plug-In . SVG Version: 6.00 Build 0)  -->
<!DOCTYPE svg PUBLIC "-//W3C//DTD SVG 1.1//EN" "http://www.w3.org/Graphics/SVG/1.1/DTD/svg11.dtd">
<svg version="1.1" id="Calque_1" xmlns="http://www.w3.org/2000/svg" xmlns:xlink="http://www.w3.org/1999/xlink" x="0px" y="0px"
	 width="241.127px" height="103.809px" viewBox="0 0 241.127 103.809" enable-background="new 0 0 241.127 103.809"
	 xml:space="preserve">
<g id="mars">
	<path id="anneau" fill="#494DFF" d="M153.37,15.162c1.354,1.208,2.649,2.497,3.873,3.858c23.916-5.451,41.254-5.365,43.899,1.414
		c4.105,10.511-28.643,33.121-73.145,50.501C83.494,88.314,44.089,93.885,39.983,83.375c-2.646-6.779,10.041-18.596,31.326-30.792
		c-0.025-1.833,0.054-3.655,0.232-5.462C26.473,68.264-3.416,89.314,0.313,98.868c4.762,12.192,62.459,1.048,128.872-24.887
		c66.413-25.94,116.39-56.847,111.629-69.041C237.082-4.612,200.837,0.165,153.37,15.162z"/>
	<g id="mars_1_">
		<circle id="sphere" fill="#DB665F" cx="120.564" cy="51.904" r="49.267"/>
		<path id="ombre_1_" opacity="0.3" fill="#E96D13" d="M149.099,69.888c-25.345,9.896-53.916-2.623-63.816-27.97
			c-2.653-6.795-3.681-13.816-3.298-20.647c-10.524,13.28-13.922,31.633-7.313,48.557c9.898,25.348,38.471,37.869,63.815,27.968
			c18.552-7.245,30.221-24.499,31.266-43.166C164.514,61.239,157.521,66.597,149.099,69.888z"/>
		<path id="c7" opacity="0.3" fill="#E96D13" d="M166.239,70.339c0.751-1.859,1.396-3.765,1.915-5.705
			c-10.547,5.678-22.819,11.354-36.151,16.559c-13.329,5.21-26.202,9.354-37.805,12.326c1.699,1.074,3.46,2.036,5.275,2.896
			c10.819-3.576,22.135-7.65,33.721-12.175C144.777,79.714,155.856,75.039,166.239,70.339z"/>
		<path id="c6" opacity="0.3" fill="#E96D13" d="M110.092,28.889c1.694,4.334-0.448,9.227-4.786,10.918
			c-4.338,1.694-9.224-0.45-10.918-4.787c-1.694-4.336,0.448-9.226,4.784-10.917C103.51,22.407,108.397,24.551,110.092,28.889z"/>
		<path id="c5" opacity="0.3" fill="#E96D13" d="M151.365,35.198c1.019,2.604,0.509,5.234-1.135,5.877
			c-1.645,0.642-3.803-0.948-4.82-3.551c-1.016-2.606-0.509-5.234,1.137-5.879C148.192,31.002,150.35,32.592,151.365,35.198z"/>
		
			<ellipse id="c4" transform="matrix(0.5569 -0.8306 0.8306 0.5569 50.2149 120.7976)" opacity="0.3" fill="#E96D13" cx="138.321" cy="13.336" rx="3.243" ry="4.217"/>
		
			<ellipse id="c3" transform="matrix(0.9315 -0.3638 0.3638 0.9315 -14.9722 45.4419)" opacity="0.3" fill="#E96D13" cx="113.143" cy="62.466" rx="5.077" ry="7.136"/>
		<path id="c2" opacity="0.3" fill="#E96D13" d="M92.023,67.324c1.332,3.408,0.846,6.783-1.083,7.541
			c-1.931,0.751-4.576-1.4-5.906-4.812c-1.333-3.41-0.848-6.787,1.083-7.541C88.047,61.759,90.691,63.912,92.023,67.324z"/>
		<circle id="c1" opacity="0.3" fill="#E96D13" cx="146.415" cy="55.771" r="2.398"/>
	</g>
</g>
</svg>
