<?xml version="1.0" encoding="utf-8"?>
<!-- Generator: Adobe Illustrator 16.0.0, SVG Export Plug-In . SVG Version: 6.00 Build 0)  -->
<!DOCTYPE svg PUBLIC "-//W3C//DTD SVG 1.1//EN" "http://www.w3.org/Graphics/SVG/1.1/DTD/svg11.dtd">
<svg version="1.1" id="Calque_1" xmlns="http://www.w3.org/2000/svg" xmlns:xlink="http://www.w3.org/1999/xlink" x="0px" y="0px"
	 width="241.058px" height="241.054px" viewBox="0 0 241.058 241.054" enable-background="new 0 0 241.058 241.054"
	 xml:space="preserve">
<g id="planete">
	<path id="halo" fill="#6E2D61" d="M237.967,93.525c14.912,64.859-25.574,129.523-90.433,144.438
		c-64.86,14.911-129.531-25.571-144.443-90.429C-11.823,82.675,28.667,18.006,93.529,3.091
		C158.385-11.822,223.057,28.668,237.967,93.525z"/>
	<path id="v1" fill="#005E00" d="M135.215,29.964L117.61,43.047l-48.775,9.428l-6.685-2.719L39.489,151.579l-2.265,7.419l9.849,4.84
		c0,0,39.597,14.129,40.64,14.783c1.043,0.653,74.507-21.899,74.507-21.899l50.049-34.973l-38.396-63.336L135.215,29.964z"/>
	<path id="sphere_1_" fill="#FFD8B9" d="M206.887,100.672c10.962,47.694-18.809,95.248-66.502,106.21
		c-47.692,10.967-95.241-18.807-106.208-66.497C23.208,92.695,52.98,45.14,100.674,34.174
		C148.368,23.21,195.917,52.981,206.887,100.672z"/>
	<path id="e2" fill="#494DFF" d="M135.215,29.964c0.318,2.657,0.294,5.522-0.506,8.71c-1.775,7.1-9.235,14.729-16.189,16.994
		c-1.196,0.392-2.396,0.75-3.593,1.103c-6.069,1.805-12.411,3.807-16.153,9.379c-1.481,2.207-2.24,4.91-1.833,7.539
		c0.994,6.438,7.021,8.06,11.802,10.75c3.83,2.155,7.443,6.612,5.547,10.582c-1.775,3.728-7.091,4.177-9.757,7.332
		c-5.104,6.038,2.964,15.311,0.741,22.899c-1.466,5.005-6.818,7.555-10.962,10.726c-4.69,3.59-8.316,8.743-9.426,14.548
		c-1.109,5.8,0.521,12.212,4.761,16.327c4.997,4.859,12.974,5.878,19.523,3.481c6.545-2.397,11.703-7.762,15.009-13.897
		c1.441-2.67,2.654-5.613,5.025-7.497c5.598-4.429,13.612-0.749,20.273,1.806c6.893,2.648,14.311,3.928,21.696,3.746
		c5.278-0.133,11.529-1.722,12.613-7.402c0.435-2.276-0.235-4.645-1.557-6.549c-0.612-0.89-1.313-1.664-2.073-2.352
		c-5.191-4.67-5.589-12.82-0.178-17.23c0.077-0.065,0.156-0.132,0.239-0.194c4.173-3.32,9.827-5.251,14.932-3.697
		c3.109,0.944,5.733,3.071,8.78,4.213c2.754,1.031,5.602,1.098,8.338,0.469c0.087-7.176-0.646-14.473-2.326-21.777
		C201.332,62.525,170.938,35.772,135.215,29.964z"/>
	<path id="e1" fill="#494DFF" d="M31.118,141.085c1.445,6.292,3.51,12.273,6.106,17.912c1.056-0.335,2.078-0.778,3.063-1.37
		c1.917-1.15,3.602-2.79,5.767-3.361c3.92-1.035,7.7,1.722,11.086,3.957c3.382,2.24,8.147,4,11.219,1.351
		c0.911-5.44-3.357-10.425-8.022-13.367c-4.666-2.948-10.089-4.84-13.968-8.761c-3.883-3.92-5.431-11.057-1.291-14.7
		c2.223-1.954,5.576-2.455,7.427-4.769c2.566-3.202,0.894-7.983-1.358-11.419c-2.252-3.432-5.141-6.992-4.749-11.082
		c0.484-5.098,5.763-8.213,10.569-9.985c4.807-1.776,10.279-3.469,12.689-7.992c2.372-4.457,0.79-9.925-1.13-14.59
		c-1.826-4.423-3.937-8.951-6.375-13.152C36.227,71.175,23.066,106.087,31.118,141.085z"/>
	<path id="p1" fill="#6B2B8F" d="M141.089,209.941c23.518-5.41,42.817-19.419,55.365-37.939c-0.48,0.016-0.956,0.033-1.425,0.062
		c-9.464,0.496-19.589,1.233-27.049,7.075c-4.325,3.391-8.743,8.688-14.029,7.198c-3.13-0.878-5.063-3.904-7.431-6.131
		c-2.372-2.228-6.521-3.586-8.627-1.109c-3.134,3.672,2.687,9.521,0.616,13.877c-1.523,3.216-6.201,3.195-9.442,1.742
		s-6.256-3.875-9.81-3.899c-8.777-0.059-11.538,13.297-19.896,15.983c-8.665,2.782-16.708-7.397-25.646-7.397
		C93.28,211.021,117.163,215.448,141.089,209.941z"/>
	<path id="ombre_2_" opacity="0.1" d="M212.268,121.749c0.087-7.176-0.646-14.475-2.326-21.777
		c-7.849-34.136-33.822-59.331-65.408-67.927c8.78,10.637,15.305,23.402,18.604,37.759c1.682,7.304,2.414,14.603,2.327,21.777
		l-3.196,2.231c-0.616,16.046-5.601,31.36-14.038,44.479c0.791,1.938,1.421,3.544,1.421,3.544
		c-12.548,18.517-31.846,32.529-55.364,37.94c-13.375,3.076-26.723,2.997-39.324,0.344c5.49,6.023,11.749,11.265,18.617,15.557
		l0.137,3.727c6.338,3.763,13.127,6.756,20.222,8.917l0.075,0.029h0.02c14.795,4.483,30.911,5.307,47.056,1.593
		c23.518-5.41,42.817-19.419,55.365-37.939c0,0-0.629-1.607-1.421-3.545c8.438-13.118,13.422-28.432,14.038-44.478L212.268,121.749z
		"/>
</g>
</svg>
